<svg width="123" height="140" viewBox="0 0 123 140" fill="none" xmlns="http://www.w3.org/2000/svg">
<path d="M61.25 70C80.582 70 96.25 54.332 96.25 35C96.25 15.668 80.582 0 61.25 0C41.918 0 26.25 15.668 26.25 35C26.25 54.332 41.918 70 61.25 70ZM87.4453 78.9141L74.375 131.25L65.625 94.0625L74.375 78.75H48.125L56.875 94.0625L48.125 131.25L35.0547 78.9141C15.5586 79.8438 0 95.7852 0 115.5V126.875C0 134.121 5.87891 140 13.125 140H109.375C116.621 140 122.5 134.121 122.5 126.875V115.5C122.5 95.7852 106.941 79.8438 87.4453 78.9141Z" fill="#212529"/>
</svg>
