<svg width="44" height="45" viewBox="0 0 44 45" fill="none" xmlns="http://www.w3.org/2000/svg">
<g clip-path="url(#clip0)">
<path d="M19.8088 20.511C18.7102 21.6097 18.7102 23.3903 19.8088 24.4881C20.9065 25.5867 22.6881 25.5867 23.7858 24.4881C24.8845 23.3895 24.8845 21.6088 23.7858 20.511C22.6872 19.4133 20.9065 19.4133 19.8088 20.511ZM21.7969 0.703125C9.7585 0.703125 0 10.4616 0 22.5C0 34.5384 9.7585 44.2969 21.7969 44.2969C33.8353 44.2969 43.5938 34.5384 43.5938 22.5C43.5938 10.4616 33.8353 0.703125 21.7969 0.703125ZM32.8834 13.7153L27.0853 26.4023C26.8048 27.0159 26.3128 27.5079 25.6992 27.7884L13.0131 33.5865C11.5497 34.2554 10.0415 32.7472 10.7104 31.2838L16.5094 18.5968C16.7898 17.9832 17.2819 17.4912 17.8954 17.2107L30.5815 11.4126C32.0449 10.7446 33.5522 12.252 32.8834 13.7153V13.7153Z" fill="white"/>
</g>
<defs>
<clipPath id="clip0">
<rect width="43.5938" height="45" fill="white"/>
</clipPath>
</defs>
</svg>
