<svg width="136" height="126" viewBox="0 0 136 126" fill="none" xmlns="http://www.w3.org/2000/svg">
<path d="M126.852 54.2502H120.041C119.653 52.8457 118.818 51.6057 117.663 50.7177C116.508 49.8297 115.095 49.342 113.638 49.3283H106.367V31.5483C106.375 31.2157 106.295 30.8869 106.134 30.5956C105.973 30.3043 105.738 30.061 105.452 29.8907L54.1617 0.265933C53.8726 0.0979087 53.5442 0.00939941 53.2098 0.00939941C52.8755 0.00939941 52.5471 0.0979087 52.258 0.265933L0.951572 29.8907C0.661267 30.059 0.420451 30.3008 0.253392 30.5918C0.0863333 30.8828 -0.00106357 31.2127 9.76838e-06 31.5483V90.7981C1.83036e-05 91.1341 0.0884639 91.4641 0.256458 91.7551C0.424451 92.046 0.666074 92.2877 0.957041 92.4557L52.2687 122.08C52.5596 122.248 52.8897 122.337 53.2257 122.337C53.5704 122.337 53.9093 122.249 54.2101 122.08L81.2109 106.506V117.765C81.2082 118.837 81.418 119.898 81.8284 120.889C82.2387 121.879 82.8414 122.778 83.6015 123.534C84.3617 124.289 85.2642 124.887 86.2568 125.292C87.2494 125.696 88.3124 125.9 89.3843 125.891H126.852C127.927 125.901 128.993 125.698 129.989 125.295C130.985 124.891 131.891 124.294 132.656 123.539C133.42 122.784 134.028 121.885 134.444 120.894C134.859 119.903 135.075 118.839 135.078 117.765V62.503C135.077 60.3193 134.211 58.2249 132.669 56.6783C131.127 55.1316 129.036 54.2585 126.852 54.2502V54.2502ZM113.706 53.1564C114.443 53.1564 115.15 53.4491 115.671 53.9702C116.192 54.4912 116.484 55.1979 116.484 55.9348V56.1202C116.484 56.8571 116.192 57.5638 115.671 58.0848C115.15 58.6059 114.443 58.8986 113.706 58.8986H102.583C101.846 58.8986 101.14 58.6059 100.618 58.0848C100.097 57.5638 99.8047 56.8571 99.8047 56.1202V55.9348C99.8047 55.1979 100.097 54.4912 100.618 53.9702C101.14 53.4491 101.846 53.1564 102.583 53.1564H113.706ZM53.2257 4.13371L74.5467 16.4433L27.0665 43.856L5.74575 31.5464L53.2257 4.13371ZM51.4063 117.107L3.82813 89.6928V34.8593L51.4063 62.2739V117.107ZM53.2257 58.9587L30.8946 46.0659L78.3748 18.6535L100.707 31.5464L53.2257 58.9587ZM81.2109 62.503V102.086L55.2344 117.107V62.2739L102.539 34.8593V49.3283H102.598C101.141 49.342 99.7284 49.8297 98.5732 50.7177C97.418 51.6057 96.5833 52.8457 96.1953 54.2502H89.3843C87.206 54.2607 85.1212 55.1361 83.5884 56.6839C82.0556 58.2316 81.2004 60.3248 81.2109 62.503V62.503ZM131.25 117.765C131.247 118.337 131.131 118.903 130.908 119.43C130.685 119.956 130.359 120.434 129.95 120.833C129.541 121.233 129.056 121.548 128.524 121.759C127.992 121.97 127.424 122.073 126.852 122.063H89.3843C88.815 122.072 88.2495 121.968 87.7211 121.756C87.1927 121.544 86.712 121.229 86.3072 120.828C85.9024 120.428 85.5817 119.951 85.3639 119.424C85.1461 118.898 85.0357 118.334 85.0391 117.765V62.503C85.0333 61.9271 85.1412 61.3556 85.3565 60.8213C85.5719 60.2871 85.8904 59.8005 86.294 59.3895C86.6976 58.9785 87.1783 58.6512 87.7086 58.4262C88.2388 58.2012 88.8083 58.083 89.3843 58.0783H96.27C96.6805 59.4331 97.519 60.6184 98.66 61.4565C99.8009 62.2946 101.183 62.7402 102.598 62.7267H113.638C115.053 62.7403 116.435 62.2946 117.576 61.4565C118.717 60.6184 119.556 59.4331 119.966 58.0783H126.852C128.021 58.0856 129.139 58.555 129.963 59.384C130.787 60.213 131.25 61.3342 131.25 62.503V117.765Z" fill="white"/>
</svg>
