<svg width="175" height="140" viewBox="0 0 175 140" fill="none" xmlns="http://www.w3.org/2000/svg">
<path d="M137.812 96.25H37.2969C36.0938 96.25 35.1094 97.2344 35.1094 98.4375L35.082 111.563C35.082 112.766 36.0664 113.75 37.2695 113.75H137.812C139.016 113.75 140 112.766 140 111.563V98.4375C140 97.2344 139.016 96.25 137.812 96.25ZM137.812 122.5H37.2148C36.0117 122.5 35.0273 123.484 35.0273 124.688L35 137.813C35 139.016 35.9844 140 37.1875 140H137.812C139.016 140 140 139.016 140 137.813V124.688C140 123.484 139.016 122.5 137.812 122.5ZM137.812 70H37.3516C36.1484 70 35.1641 70.9844 35.1641 72.1875L35.1367 85.3125C35.1367 86.5156 36.1211 87.5 37.3242 87.5H137.812C139.016 87.5 140 86.5156 140 85.3125V72.1875C140 70.9844 139.016 70 137.812 70ZM166.934 31.9922L92.5312 1.01174C90.932 0.348319 89.2177 0.00683594 87.4863 0.00683594C85.755 0.00683594 84.0406 0.348319 82.4414 1.01174L8.06641 31.9922C3.19922 34.043 0 38.8008 0 44.1055V137.813C0 139.016 0.984375 140 2.1875 140H24.0625C25.2656 140 26.25 139.016 26.25 137.813V70C26.25 65.1875 30.2422 61.25 35.1641 61.25H139.836C144.758 61.25 148.75 65.1875 148.75 70V137.813C148.75 139.016 149.734 140 150.938 140H172.812C174.016 140 175 139.016 175 137.813V44.1055C175 38.8008 171.801 34.043 166.934 31.9922Z" fill="#212529"/>
</svg>
