<svg width="452" height="452" viewBox="0 0 452 452" fill="none" xmlns="http://www.w3.org/2000/svg">
<path d="M225.123 440.429C339.175 440.429 431.633 392.286 431.633 332.898C431.633 273.51 339.175 225.367 225.123 225.367C111.071 225.367 18.6133 273.51 18.6133 332.898C18.6133 392.286 111.071 440.429 225.123 440.429Z" fill="#F5F5F5"/>
<path d="M357.423 346.946C387.844 346.946 412.504 332.708 412.504 315.143C412.504 297.579 387.844 283.341 357.423 283.341C327.003 283.341 302.343 297.579 302.343 315.143C302.343 332.708 327.003 346.946 357.423 346.946Z" fill="#E6E6E6"/>
<path d="M135.6 296.268C156.672 308.436 157.531 328.523 136.45 340.69C115.369 352.858 80.3566 352.497 59.2753 340.329C38.1941 328.161 38.2031 308.436 59.2753 296.268C80.3476 284.1 114.51 284.1 135.6 296.268Z" fill="#E6E6E6"/>
<path d="M307.486 361.835L238.312 321.896C237.099 321.281 235.758 320.96 234.398 320.96C233.038 320.96 231.697 321.281 230.484 321.896L161.31 361.835C159.149 363.083 159.149 365.108 161.31 366.355L192.814 384.544L163.389 401.53C157.413 404.974 147.686 404.974 141.693 401.53L95.408 374.807C92.8587 373.334 91.4485 371.481 91.4485 369.6C91.4485 367.72 92.8587 365.858 95.408 364.384L136.423 340.7C136.639 340.587 136.83 340.431 136.984 340.242C137.138 340.053 137.253 339.835 137.321 339.601C137.389 339.367 137.409 339.122 137.379 338.879C137.35 338.637 137.272 338.404 137.15 338.193C137.028 337.982 136.864 337.797 136.669 337.651C136.474 337.505 136.251 337.399 136.015 337.341C135.778 337.283 135.532 337.274 135.291 337.313C135.05 337.353 134.82 337.441 134.615 337.572L93.6181 361.238C89.9027 363.39 87.8506 366.355 87.8506 369.591C87.8506 372.828 89.9027 375.784 93.6181 377.935L139.903 404.658C143.817 406.675 148.156 407.727 152.559 407.727C156.962 407.727 161.301 406.675 165.215 404.658L196.448 386.632L230.52 406.294C231.733 406.909 233.074 407.23 234.434 407.23C235.794 407.23 237.135 406.909 238.349 406.294L307.523 366.355C309.647 365.108 309.647 363.083 307.486 361.835Z" fill="#E6E6E6"/>
<path d="M386.532 300.209C386.532 300.209 389.045 262.983 388.34 249.26C387.753 238.412 386.279 233.892 385.972 231.442C385.972 231.442 383.305 206.13 383.088 184.534C382.979 174.156 382.021 166.779 376.335 154.448L339.786 163.19C339.045 168.668 336.532 205.1 335.935 237.49C335.42 265.848 336.225 290.672 336.225 290.672V292.164C336.225 293.827 335.863 294.984 334.796 297.642C333.463 301.066 331.548 304.235 329.137 307.007C328.387 307.821 323.171 312.377 322.484 313.335C320.242 315.948 324.888 317.422 328.333 316.951C331.949 316.463 337.608 315.08 339.181 312.874C340.247 311.392 341.052 306.23 342.146 304.738C345.843 299.694 347.362 297.506 347.389 295.915C347.443 293.004 346.44 291.856 346.078 290.211C346.377 286.776 353.798 258.526 353.925 248.519C353.988 243.755 353.663 237.192 353.663 237.192L359.412 204.177C361.636 212.422 365.541 232.888 366.861 240.744C368.461 250.345 372.647 274.988 375.124 289.687C376.073 295.355 376.516 298.221 376.932 300.851L377.031 301.972C377.113 303.4 378.152 318.678 378.713 321.86C379.888 328.541 385.827 327.7 386.776 322.294C387.59 317.702 386.577 303.455 386.55 301.71L386.532 300.209Z" fill="#FFA8A7"/>
<path d="M386.532 300.209C388.213 300.209 387.111 306.727 387.544 310.895C388.006 315.369 389.47 318.642 389.895 322.303C390.465 325.503 389.973 328.802 388.494 331.696C387.328 334.408 381.452 338.024 379.219 334.218C376.986 330.412 376.507 326.01 376.769 321.833C377.031 317.657 376.769 314.854 376.85 311.573C376.932 308.68 374.807 301.294 376.986 300.878L377.085 301.999C377.872 303.563 385.809 303.871 386.604 301.755L386.532 300.209Z" fill="#37474F"/>
<path d="M347.769 299.468C348.284 301.556 347.769 307.288 347.769 307.288C347.769 307.288 346.865 309.267 343.638 310.578L342.191 302.605L347.769 299.468Z" fill="#263238"/>
<path d="M343.62 310.578L336.514 308.246L334.797 301.936L342.788 305.977L343.62 310.578Z" fill="black"/>
<path d="M336.225 292.164V290.672C335.258 291.142 333.133 298.926 330.258 304.232C327.637 309.105 322.439 311.817 320.748 313.941C318.488 316.771 322.882 320.432 329.924 318.922C333.422 318.172 338.72 315.939 340.157 313.58C341.595 311.22 342.074 306.881 343.249 305.145C344.424 303.41 347.218 301.412 347.769 299.441C348.228 297.662 348.228 295.796 347.769 294.017C347.218 292.209 346.729 290.048 346.115 290.247V291.612C345.645 292.571 343.936 293.692 340.383 293.89C338.648 293.972 337.002 293.71 336.225 292.164Z" fill="#37474F"/>
<path d="M339.045 162.72C339.045 162.72 336.632 189.542 335.854 213.29C335.077 237.038 335.773 267.683 335.773 267.683C335.773 267.683 338.223 269.437 343.62 269.681C349.017 269.925 350.852 268.126 350.852 268.126C350.852 268.126 354.151 257.36 354.667 249.784C354.994 245.684 354.994 241.563 354.667 237.463L359.485 205.768C359.485 205.768 365.596 236.975 366.292 240.744C366.988 244.514 372.837 277.862 372.837 277.862C372.837 277.862 375.133 279.978 381.027 279.869C386.243 279.77 387.753 277.899 387.753 277.899C387.753 277.899 389.01 257.45 388.72 248.718C388.476 241.015 386.713 234.886 386.361 229.887C386.008 224.888 385.809 196.439 385.457 185.591C385.104 174.743 384.2 165.432 374.916 152.378L339.045 162.72Z" fill="#455A64"/>
<path d="M359.521 205.796L355.507 185.908C355.507 185.908 348.519 184.1 345.256 179.815C345.256 179.815 346.16 184.552 353.392 187.58L357.659 207.36L356.176 227.808L359.521 205.796Z" fill="#37474F"/>
<path d="M287.978 157.775C290.553 158.168 293.183 157.973 295.671 157.206C294.578 156.659 293.555 155.982 292.625 155.19C292.198 154.847 291.922 154.351 291.854 153.808C291.787 153.264 291.933 152.716 292.263 152.279C292.598 151.917 293.429 152.758 295.31 153.291C297.714 153.969 299.459 154.114 301.773 155.452C302.646 155.96 303.672 156.139 304.666 155.958C310.307 154.9 323.46 148.726 329.49 145.508C330.719 140.491 332.853 133.114 335.483 123.911C337.915 115.432 341.811 111.725 348.031 111.861L347.136 130.275C347.136 130.275 344.171 142.995 340.501 153.382C339.859 155.19 337.282 157.296 332.564 159.05C326.452 161.319 319.076 163.461 310.063 165.929C306.411 166.969 302.68 167.71 298.908 168.144C289.379 168.958 285.727 166.336 284.444 164.456C280.791 159.267 282.952 156.772 287.978 157.775Z" fill="#FFA8A7"/>
<path d="M364.059 111.725L372.756 112.394C372.007 115.929 372.219 119.599 373.37 123.024C374.521 126.448 376.569 129.502 379.3 131.866L375.422 147.488C375.549 149.422 378.749 155.931 381.85 162.928C376.019 170.738 347.416 173.405 338.087 166.544C339.524 159.185 340.6 153.599 340.89 150.805L340.419 140.708C328.722 131.116 342.833 116.498 348.031 111.852L354.558 111.563L364.059 111.725Z" fill="#ECBD2F"/>
<path d="M400.68 189.551C400.049 189.058 399.549 188.418 399.224 187.686C398.899 186.955 398.759 186.154 398.818 185.356C398.971 183.901 399.306 182.075 399.911 181.37C400.517 180.664 404.314 175.503 405.995 178.504C407.803 181.776 407.433 183.105 407.433 183.105L400.68 189.551Z" fill="#F28F8F"/>
<path d="M388.964 258.544C384.883 258.408 380.909 257.205 377.438 255.055L332.302 228.983C325.332 224.96 319.646 215.134 319.646 207.079V169.211C319.641 167.943 319.304 166.7 318.667 165.604C318.031 164.508 317.117 163.598 316.019 162.967C314.92 162.335 313.675 162.003 312.407 162.004C311.14 162.005 309.895 162.339 308.798 162.973L292.996 172.122C292.79 172.252 292.56 172.34 292.319 172.38C292.079 172.419 291.832 172.41 291.596 172.352C291.359 172.294 291.136 172.189 290.941 172.042C290.746 171.896 290.582 171.712 290.46 171.501C290.338 171.289 290.26 171.056 290.231 170.814C290.202 170.572 290.221 170.326 290.289 170.092C290.357 169.858 290.472 169.64 290.626 169.451C290.781 169.262 290.972 169.107 291.188 168.994L307.035 159.836C308.682 158.885 310.551 158.384 312.454 158.383C314.356 158.382 316.226 158.881 317.874 159.831C319.523 160.781 320.892 162.147 321.846 163.794C322.799 165.44 323.303 167.308 323.307 169.211V207.079C323.307 213.859 328.279 222.447 334.155 225.855L379.292 251.909C385.068 255.244 390.429 255.823 394.37 253.554C398.312 251.285 400.49 246.322 400.49 239.678V191.332C400.49 183.141 405.725 173.704 412.405 169.844L423.425 163.516C423.631 163.385 423.861 163.297 424.101 163.257C424.342 163.218 424.588 163.227 424.825 163.285C425.062 163.343 425.284 163.449 425.48 163.595C425.675 163.741 425.838 163.925 425.96 164.137C426.082 164.348 426.16 164.581 426.19 164.823C426.219 165.065 426.199 165.311 426.131 165.545C426.063 165.779 425.949 165.997 425.794 166.186C425.64 166.375 425.449 166.53 425.233 166.643L414.213 172.971C408.735 176.135 404.106 184.534 404.106 191.323V239.668C404.106 247.678 401.286 253.717 396.178 256.673C393.984 257.929 391.493 258.575 388.964 258.544Z" fill="#37474F"/>
<path d="M310.976 174.734V177.69C310.976 182.418 307.658 188.177 303.554 190.536L276.181 206.347L248.347 190.274V166.173L275.34 153.68C279.634 151.7 286.432 152.008 290.536 154.367L303.536 161.879C307.631 164.248 310.976 170.006 310.976 174.734Z" fill="#37474F"/>
<path d="M275.34 153.68C279.634 151.7 286.432 152.008 290.536 154.367L303.536 161.879C307.631 164.239 307.468 167.764 303.174 169.753L276.154 182.228L248.311 166.164L275.34 153.68Z" fill="#455A64"/>
<path opacity="0.15" d="M278.784 176.443C279.862 177.146 280.76 178.094 281.404 179.209C282.048 180.324 282.42 181.575 282.49 182.861V202.686L276.162 206.302L248.328 190.229V166.173L255.379 162.919L278.784 176.443Z" fill="black"/>
<path d="M245.951 162.024C246.368 161.83 246.83 161.751 247.288 161.795C247.745 161.84 248.183 162.006 248.555 162.277L275.928 178.088C277.008 178.792 277.907 179.741 278.551 180.858C279.195 181.975 279.566 183.228 279.634 184.515V208.092C279.684 208.55 279.609 209.014 279.418 209.433C279.227 209.853 278.927 210.214 278.55 210.478C277.917 210.831 275.684 212.124 275.06 212.494C274.641 212.688 274.179 212.767 273.719 212.722C273.26 212.678 272.821 212.512 272.448 212.241L245.065 196.43C243.987 195.726 243.089 194.779 242.446 193.664C241.802 192.549 241.429 191.297 241.359 190.012V166.435C241.311 165.977 241.385 165.513 241.574 165.093C241.763 164.672 242.06 164.309 242.435 164.04L245.951 162.024Z" fill="#37474F"/>
<path d="M272.447 180.095L245.065 164.293C243.022 163.109 241.358 164.067 241.358 166.435V190.012C241.429 191.297 241.801 192.549 242.445 193.664C243.089 194.779 243.986 195.726 245.065 196.43L272.447 212.241C274.49 213.425 276.153 212.467 276.153 210.099V186.522C276.083 185.235 275.711 183.983 275.067 182.866C274.423 181.75 273.526 180.8 272.447 180.095Z" fill="#455A64"/>
<path d="M240.021 207.54V211.617C240.021 213.272 240.59 214.42 241.53 214.962L243.989 216.381C244.578 216.668 245.234 216.789 245.887 216.732C246.54 216.675 247.165 216.441 247.695 216.056L270.295 202.984V186.893L267.837 185.474L245.191 198.546C243.683 199.533 242.429 200.862 241.531 202.425C240.633 203.988 240.115 205.74 240.021 207.54ZM250.263 202.496C250.349 202.79 250.398 203.094 250.407 203.4C250.343 204.608 249.994 205.784 249.389 206.832C248.785 207.879 247.941 208.77 246.927 209.43C246.645 209.595 246.341 209.717 246.023 209.791C245.944 209.496 245.901 209.193 245.897 208.887C245.962 207.679 246.311 206.504 246.916 205.456C247.52 204.409 248.364 203.518 249.377 202.858C249.658 202.704 249.955 202.583 250.263 202.496Z" fill="#ECBD2F"/>
<path opacity="0.2" d="M243.863 216.291C243.91 216.332 243.962 216.369 244.017 216.4L243.926 216.345L241.549 214.962C240.6 214.438 240.039 213.29 240.039 211.626V207.549C240.098 205.738 240.625 203.972 241.567 202.424L244.026 203.843C243.093 205.395 242.57 207.159 242.507 208.969V213.046C242.441 214.101 242.78 215.143 243.456 215.957C243.578 216.084 243.715 216.196 243.863 216.291Z" fill="black"/>
<path opacity="0.5" d="M270.296 186.893L247.696 199.965C246.162 200.92 244.899 202.252 244.025 203.834L241.566 202.415C242.439 200.836 243.699 199.504 245.228 198.546L267.873 185.474L270.296 186.893Z" fill="white"/>
<path opacity="0.2" d="M250.408 203.4C250.406 203.074 250.364 202.748 250.281 202.433C251.773 202.026 252.866 202.957 252.866 204.819C252.802 206.026 252.453 207.201 251.85 208.248C251.247 209.296 250.406 210.187 249.395 210.849C247.786 211.753 246.412 211.292 246.032 209.791C246.351 209.722 246.657 209.599 246.936 209.43C247.947 208.767 248.788 207.876 249.391 206.829C249.994 205.781 250.342 204.607 250.408 203.4Z" fill="black"/>
<path d="M219.147 195.481V199.567C219.147 201.212 219.717 202.369 220.657 202.903L223.116 204.331C223.705 204.612 224.358 204.728 225.008 204.668C225.657 204.607 226.278 204.372 226.804 203.988L249.404 190.907V174.843L246.945 173.414L224.345 186.486C222.834 187.472 221.576 188.8 220.673 190.363C219.77 191.926 219.247 193.679 219.147 195.481ZM229.39 190.41C229.472 190.725 229.515 191.05 229.516 191.377C229.451 192.585 229.102 193.76 228.497 194.808C227.893 195.856 227.049 196.746 226.036 197.406C225.75 197.562 225.446 197.683 225.132 197.768C225.046 197.459 225.003 197.14 225.005 196.819C225.07 195.612 225.418 194.437 226.021 193.39C226.624 192.342 227.466 191.451 228.477 190.789C228.762 190.62 229.069 190.493 229.39 190.41Z" fill="#ECBD2F"/>
<path opacity="0.2" d="M223.224 204.394H223.179H223.116L220.657 202.957C219.708 202.424 219.147 201.276 219.147 199.612V195.535C219.157 194.664 219.294 193.799 219.554 192.968C219.826 192.078 220.199 191.223 220.666 190.419L223.125 191.829C222.892 192.232 222.684 192.648 222.501 193.076C221.94 194.291 221.633 195.608 221.597 196.945V201.022C221.52 202.072 221.843 203.112 222.501 203.933C222.714 204.127 222.959 204.283 223.224 204.394Z" fill="black"/>
<path opacity="0.5" d="M249.431 174.843L226.831 187.914C225.296 188.868 224.032 190.2 223.161 191.784L220.702 190.373C221.56 188.793 222.804 187.456 224.318 186.486L246.918 173.414L249.431 174.843Z" fill="white"/>
<path opacity="0.2" d="M229.507 191.368C229.509 191.045 229.469 190.723 229.389 190.41C230.872 189.994 231.975 190.934 231.975 192.796C231.91 194.003 231.562 195.178 230.959 196.225C230.356 197.273 229.515 198.164 228.504 198.826C226.885 199.73 225.52 199.269 225.141 197.759C225.461 197.692 225.767 197.569 226.045 197.397C227.055 196.735 227.895 195.844 228.497 194.797C229.098 193.749 229.444 192.574 229.507 191.368Z" fill="black"/>
<path d="M226 180.393C225.699 180.394 225.406 180.294 225.168 180.109C224.931 179.924 224.762 179.664 224.689 179.372L221.073 165.197C220.983 164.848 221.036 164.478 221.219 164.168C221.402 163.857 221.701 163.633 222.05 163.543C222.398 163.453 222.769 163.505 223.079 163.688C223.389 163.871 223.614 164.17 223.704 164.519L227.32 178.703C227.366 178.875 227.377 179.055 227.353 179.231C227.328 179.408 227.269 179.578 227.178 179.731C227.087 179.884 226.966 180.018 226.823 180.124C226.68 180.23 226.517 180.306 226.344 180.348C226.231 180.377 226.116 180.392 226 180.393Z" fill="#E0E0E0"/>
<path d="M215.821 186.305C215.516 186.306 215.22 186.204 214.98 186.016L201.52 175.376C201.371 175.269 201.246 175.133 201.151 174.976C201.057 174.819 200.995 174.644 200.97 174.463C200.945 174.282 200.957 174.097 201.005 173.92C201.053 173.743 201.136 173.578 201.25 173.435C201.363 173.291 201.505 173.172 201.666 173.085C201.827 172.997 202.004 172.943 202.186 172.926C202.369 172.909 202.553 172.929 202.727 172.985C202.901 173.041 203.063 173.132 203.201 173.252L216.662 183.883C216.943 184.107 217.125 184.433 217.167 184.79C217.209 185.147 217.109 185.507 216.888 185.79C216.761 185.952 216.599 186.083 216.415 186.172C216.23 186.262 216.026 186.307 215.821 186.305Z" fill="#E0E0E0"/>
<path d="M197.271 199.287C196.911 199.3 196.561 199.17 196.297 198.925C196.034 198.68 195.878 198.34 195.865 197.981C195.852 197.621 195.982 197.271 196.227 197.007C196.472 196.744 196.812 196.588 197.171 196.575L212.91 195.354C213.088 195.34 213.267 195.36 213.436 195.415C213.606 195.47 213.763 195.558 213.899 195.674C214.034 195.79 214.145 195.932 214.225 196.091C214.305 196.25 214.353 196.424 214.366 196.602C214.391 196.96 214.274 197.313 214.04 197.585C213.807 197.858 213.475 198.027 213.118 198.057L197.379 199.278L197.271 199.287Z" fill="#E0E0E0"/>
<path d="M412.984 174.797C412.677 171.458 412.182 168.138 411.501 164.853C409.444 157.148 406.703 149.642 403.311 142.425C401.801 139.541 398.393 135.338 395.979 131.785C392.562 126.768 390.158 123.956 387.563 120.548C381.85 113.072 379.427 112.638 372.756 112.412C371.852 114.79 369.79 124.535 376.471 132.409L390.79 147.506C391.604 148.816 400.355 163.778 401.81 169.301C402.062 170.283 401.939 171.324 401.467 172.221C400.323 174.753 399.482 177.411 398.962 180.14C398.538 182.057 397.399 183.575 397.787 183.874C398.268 184.194 398.842 184.344 399.418 184.298C399.994 184.252 400.537 184.013 400.96 183.62C401.983 182.523 402.816 181.265 403.428 179.896C403.697 179.878 403.966 179.917 404.22 180.009C404.473 180.101 404.704 180.245 404.899 180.431C405.093 180.617 405.247 180.842 405.35 181.09C405.454 181.339 405.504 181.606 405.498 181.876C405.58 182.988 405.074 184.534 404.685 186.459C404.612 186.839 404.522 187.273 404.35 188.321C404.202 189.029 404.117 189.75 404.097 190.473C405.905 190.807 407.795 189.704 410.832 186.857C413.571 184.199 413.752 180.71 412.984 174.797Z" fill="#FFA8A7"/>
<path d="M365.613 107.332C365.668 105.524 371.544 101.293 374.518 96.7913C377.23 92.6148 381.126 81.134 371.996 77.4638C371.996 77.4638 373.966 71.9584 370.387 68.713C366.807 65.4677 361.988 67.4746 361.229 68.8306C360.77 67.1401 359.778 65.6428 358.4 64.5613C357.022 63.4799 355.332 62.872 353.581 62.828C351.871 62.6992 350.171 63.1927 348.796 64.2176C347.421 65.2425 346.462 66.7298 346.096 68.4057C344.651 67.7803 343.036 67.6707 341.52 68.0954C340.004 68.5201 338.68 69.4531 337.77 70.738C334.416 75.3574 338.864 79.5882 338.864 79.5882C338.287 79.9775 337.827 80.5161 337.532 81.1466C337.238 81.7771 337.12 82.4758 337.192 83.168C337.454 85.1206 339.325 85.5998 339.542 86.5761C339.584 86.7804 339.558 86.9928 339.469 87.181C339.379 87.3693 339.23 87.5232 339.045 87.6193C338.86 87.7154 338.649 87.7485 338.443 87.7136C338.237 87.6787 338.049 87.5777 337.906 87.4258C337.955 87.6807 338.053 87.9235 338.196 88.1402C338.339 88.3569 338.523 88.5433 338.738 88.6886C338.953 88.8339 339.195 88.9353 339.449 88.987C339.703 89.0387 339.965 89.0396 340.22 88.9898C342.326 88.8722 344.207 86.0066 344.207 86.0066L365.613 107.332Z" fill="#263238"/>
<path d="M346.449 76.8852C343.737 78.0604 341.179 82.1917 341.215 93.7448C341.215 103.535 344.253 106.012 345.735 106.744C347.218 107.477 350.21 107.097 353.094 106.654V112.286C353.094 112.286 347.878 118.758 352.551 121.977C364.593 119.87 365.515 111.969 365.515 111.969L365.732 99.6931C365.732 99.6931 367.386 101.429 370.252 98.8795C372.656 96.7732 373.524 93.1662 371.716 91.1774C369.908 89.1886 367.594 89.035 365.497 91.2498C365.497 91.2498 361.655 91.5029 355.878 87.8778C350.102 84.2528 348.04 80.5735 346.449 76.8852Z" fill="#FFA8A7"/>
<path d="M353.383 99.8739C353.395 100.061 353.37 100.248 353.309 100.425C353.248 100.602 353.153 100.765 353.028 100.905C352.904 101.044 352.752 101.158 352.584 101.238C352.415 101.319 352.232 101.365 352.045 101.375C351.755 101.398 351.465 101.334 351.212 101.191C350.959 101.048 350.754 100.832 350.625 100.572C350.495 100.312 350.447 100.018 350.486 99.7303C350.524 99.4422 350.648 99.1722 350.842 98.9552C351.035 98.7383 351.289 98.5842 351.571 98.5129C351.853 98.4415 352.15 98.4562 352.423 98.5551C352.696 98.6539 352.934 98.8324 353.105 99.0674C353.276 99.3025 353.373 99.5834 353.383 99.8739Z" fill="#B16668"/>
<path d="M345.942 90.4C345.94 90.6547 345.864 90.9032 345.722 91.1148C345.58 91.3264 345.379 91.4917 345.144 91.5902C344.909 91.6888 344.651 91.7162 344.4 91.6692C344.15 91.6222 343.919 91.5028 343.736 91.3258C343.553 91.1488 343.426 90.9219 343.37 90.6733C343.315 90.4247 343.333 90.1652 343.424 89.9272C343.514 89.6891 343.673 89.4828 343.879 89.3338C344.086 89.1849 344.332 89.0998 344.586 89.0892C344.762 89.0856 344.936 89.1167 345.099 89.1808C345.262 89.2448 345.411 89.3405 345.537 89.4624C345.663 89.5842 345.764 89.7298 345.833 89.8907C345.903 90.0516 345.94 90.2247 345.942 90.4Z" fill="#263238"/>
<path d="M355.95 90.9967C355.962 91.1834 355.937 91.3706 355.876 91.5476C355.815 91.7245 355.72 91.8876 355.595 92.0272C355.471 92.1669 355.32 92.2804 355.151 92.3611C354.982 92.4418 354.799 92.4881 354.612 92.4973C354.234 92.4997 353.87 92.3531 353.599 92.0891C353.329 91.8251 353.173 91.4651 353.166 91.0871C353.16 90.9042 353.19 90.722 353.254 90.5509C353.319 90.3797 353.416 90.2229 353.542 90.0894C353.667 89.9559 353.817 89.8484 353.983 89.773C354.15 89.6975 354.33 89.6556 354.513 89.6497C354.696 89.6438 354.878 89.6739 355.049 89.7384C355.22 89.8028 355.377 89.9004 355.51 90.0255C355.644 90.1506 355.751 90.3007 355.827 90.4673C355.902 90.634 355.944 90.8138 355.95 90.9967Z" fill="#263238"/>
<path d="M345.038 85.2201L342.281 86.8382C342.38 87.0247 342.516 87.1888 342.68 87.3205C342.845 87.4522 343.035 87.5486 343.238 87.6037C343.442 87.6588 343.654 87.6715 343.863 87.6409C344.072 87.6103 344.272 87.5371 344.451 87.4258C344.813 87.204 345.077 86.8512 345.186 86.4405C345.295 86.0299 345.243 85.5928 345.038 85.2201Z" fill="#263238"/>
<path d="M365.551 89.6587V95.0827C365.203 95.0916 364.857 95.0292 364.534 94.8993C364.211 94.7694 363.919 94.5748 363.674 94.3276C363.429 94.0803 363.238 93.7855 363.111 93.4614C362.985 93.1373 362.926 92.7907 362.938 92.443C362.941 91.7347 363.212 91.0537 363.697 90.5371C364.182 90.0206 364.844 89.7067 365.551 89.6587Z" fill="#263238"/>
<path d="M349.505 89.1073L348.953 96.9178L344.831 95.9506L349.505 89.1073Z" fill="#F28F8F"/>
<path d="M353.129 106.672C356.158 106.319 362.413 104.584 363.435 102.034C363.03 103.312 362.248 104.437 361.193 105.262C359.303 106.889 353.12 108.57 353.12 108.57L353.129 106.672Z" fill="#F28F8F"/>
<path d="M389.534 46.2667C390.688 46.707 391.769 47.3164 392.743 48.0747C393.687 48.7645 394.499 49.6189 395.139 50.5969C395.748 51.5376 396.149 52.598 396.314 53.7066C396.477 54.8899 396.331 56.0952 395.889 57.2051C395.574 58.0937 395.085 58.911 394.452 59.6098C393.886 60.2055 393.238 60.717 392.526 61.1285C391.834 61.5239 391.108 61.8567 390.357 62.1229L388.223 62.8913C387.596 63.118 386.99 63.4025 386.415 63.741C385.873 64.0136 385.419 64.4334 385.105 64.9524C384.96 65.1947 384.755 65.3944 384.508 65.531C384.39 65.596 384.259 65.6337 384.124 65.6416C383.99 65.6494 383.855 65.627 383.73 65.5762L380.91 64.5185C380.776 64.4689 380.653 64.393 380.549 64.2952C380.445 64.1973 380.362 64.0796 380.304 63.949C380.242 63.824 380.21 63.6863 380.21 63.5467C380.21 63.4071 380.242 63.2694 380.304 63.1444C380.667 62.2746 381.202 61.4873 381.877 60.8302C382.49 60.2543 383.173 59.7591 383.911 59.3566C384.624 58.9741 385.368 58.6535 386.135 58.3984C386.894 58.1453 387.6 57.9012 388.26 57.6481C388.856 57.4293 389.428 57.1506 389.968 56.8164C390.433 56.522 390.788 56.084 390.981 55.5689C391.159 55.1177 391.224 54.6297 391.17 54.1476C391.117 53.6654 390.946 53.2037 390.673 52.8026C389.993 51.8148 389.004 51.0805 387.862 50.7144C386.867 50.3185 385.774 50.2407 384.733 50.4916C383.692 50.7426 382.754 51.3099 382.049 52.1156C381.869 52.3061 381.658 52.465 381.425 52.5857C381.174 52.6643 380.903 52.6449 380.666 52.5314L377.665 51.4014C377.558 51.3643 377.459 51.3059 377.375 51.2298C377.291 51.1537 377.224 51.0614 377.176 50.9585C377.125 50.853 377.098 50.737 377.098 50.6195C377.098 50.5019 377.125 50.386 377.176 50.2805C377.574 49.3587 378.196 48.5508 378.984 47.9301C379.863 47.1996 380.864 46.6303 381.941 46.2486C383.123 45.8307 384.366 45.6049 385.62 45.5797C386.957 45.5544 388.286 45.7877 389.534 46.2667ZM383.098 67.8723C383.23 67.9191 383.35 67.9933 383.451 68.0898C383.553 68.1864 383.632 68.3033 383.685 68.4328C383.741 68.5612 383.77 68.6996 383.77 68.8396C383.77 68.9796 383.741 69.118 383.685 69.2464L382.456 72.5098C382.409 72.6417 382.335 72.7622 382.238 72.8635C382.142 72.9647 382.025 73.0444 381.895 73.0974C381.767 73.1532 381.629 73.1819 381.489 73.1819C381.349 73.1819 381.21 73.1532 381.082 73.0974L377.891 71.8951C377.759 71.8483 377.638 71.7742 377.537 71.6776C377.436 71.581 377.356 71.4641 377.303 71.3346C377.247 71.2063 377.219 71.0678 377.219 70.9278C377.219 70.7879 377.247 70.6494 377.303 70.521L378.532 67.2576C378.581 67.1254 378.655 67.0043 378.751 66.9018C378.848 66.7992 378.964 66.7173 379.093 66.661C379.222 66.6072 379.36 66.5796 379.5 66.5796C379.639 66.5796 379.778 66.6072 379.907 66.661L383.098 67.8723Z" fill="#ECBD2F"/>
<path d="M391.098 85.2291C391.192 85.3217 391.267 85.4321 391.318 85.5539C391.37 85.6758 391.396 85.8066 391.396 85.9388C391.396 86.0709 391.37 86.2017 391.318 86.3235C391.267 86.4454 391.192 86.5558 391.098 86.6484L388.838 89.0349C388.747 89.1313 388.638 89.2082 388.517 89.261C388.396 89.3138 388.265 89.3415 388.133 89.3423C388 89.3471 387.868 89.3256 387.744 89.2791C387.62 89.2325 387.506 89.1618 387.41 89.0711L385.105 86.8563C385.008 86.7657 384.931 86.6565 384.879 86.5353C384.826 86.4141 384.798 86.2834 384.797 86.1512C384.79 86.0185 384.811 85.8858 384.857 85.7613C384.904 85.6369 384.976 85.5234 385.068 85.428L387.337 83.0505C387.527 82.8644 387.782 82.7602 388.047 82.7602C388.313 82.7602 388.567 82.8644 388.757 83.0505L391.098 85.2291ZM404.658 68.8396C405.499 69.636 406.22 70.5494 406.801 71.5516C407.36 72.5012 407.748 73.5415 407.949 74.6252C408.118 75.664 408.066 76.7269 407.795 77.744C407.507 78.7064 407.021 79.5981 406.369 80.3623C405.716 81.1265 404.912 81.7465 404.007 82.1826C403.3 82.4949 402.551 82.702 401.783 82.7973C401.036 82.8814 400.283 82.9026 399.532 82.8606L397.399 82.7431C396.763 82.7087 396.124 82.7299 395.492 82.8064C394.925 82.869 394.386 83.0881 393.937 83.4392C393.724 83.5999 393.47 83.6971 393.204 83.7194C393.077 83.7337 392.949 83.7191 392.829 83.6769C392.708 83.6346 392.599 83.5657 392.508 83.4753L390.456 81.5227C390.259 81.3363 390.142 81.08 390.131 80.8085C390.118 80.675 390.137 80.5403 390.188 80.4159C390.238 80.2916 390.318 80.1813 390.42 80.0944C391.05 79.4681 391.8 78.9761 392.626 78.648C393.368 78.3722 394.143 78.193 394.931 78.1146C395.692 78.0515 396.457 78.0515 397.218 78.1146C397.971 78.1809 398.677 78.2261 399.334 78.2502C399.938 78.2807 400.544 78.2474 401.142 78.1508C401.656 78.0708 402.13 77.8229 402.488 77.4457C402.806 77.1176 403.038 76.7177 403.168 76.2801C403.297 75.8425 403.318 75.3802 403.23 74.9325C403.005 73.8236 402.416 72.8214 401.557 72.0849C400.835 71.3788 399.913 70.9129 398.916 70.7511C397.919 70.5893 396.897 70.7394 395.989 71.1809C395.766 71.2791 395.527 71.3372 395.284 71.3527C395.16 71.3453 395.039 71.3126 394.929 71.2566C394.819 71.2006 394.721 71.1226 394.642 71.0273L392.454 68.939C392.297 68.7966 392.2 68.5993 392.183 68.3876C392.177 68.2758 392.195 68.164 392.236 68.0597C392.276 67.9553 392.338 67.8606 392.418 67.7819C393.102 67.1316 393.933 66.657 394.841 66.3988C395.872 66.0905 396.949 65.9651 398.023 66.0282C399.205 66.1002 400.368 66.3627 401.467 66.8056C402.642 67.269 403.715 67.9602 404.622 68.8396H404.658Z" fill="#ECBD2F"/>
<g opacity="0.6">
<path opacity="0.6" d="M391.098 85.2291C391.192 85.3217 391.267 85.4321 391.318 85.5539C391.37 85.6758 391.396 85.8066 391.396 85.9388C391.396 86.0709 391.37 86.2017 391.318 86.3235C391.267 86.4454 391.192 86.5558 391.098 86.6484L388.838 89.0349C388.747 89.1313 388.638 89.2082 388.517 89.261C388.396 89.3138 388.265 89.3415 388.133 89.3423C388 89.3471 387.868 89.3256 387.744 89.2791C387.62 89.2325 387.506 89.1618 387.41 89.0711L385.105 86.8563C385.008 86.7657 384.931 86.6565 384.879 86.5353C384.826 86.4141 384.798 86.2834 384.797 86.1512C384.79 86.0185 384.811 85.8858 384.857 85.7613C384.904 85.6369 384.976 85.5234 385.068 85.428L387.337 83.0505C387.527 82.8644 387.782 82.7602 388.047 82.7602C388.313 82.7602 388.567 82.8644 388.757 83.0505L391.098 85.2291ZM404.658 68.8396C405.499 69.636 406.22 70.5494 406.801 71.5516C407.36 72.5012 407.748 73.5415 407.949 74.6252C408.118 75.664 408.066 76.7269 407.795 77.744C407.507 78.7064 407.021 79.5981 406.369 80.3623C405.716 81.1265 404.912 81.7465 404.007 82.1826C403.3 82.4949 402.551 82.702 401.783 82.7973C401.036 82.8814 400.283 82.9026 399.532 82.8606L397.399 82.7431C396.763 82.7087 396.124 82.7299 395.492 82.8064C394.925 82.869 394.386 83.0881 393.937 83.4392C393.724 83.5999 393.47 83.6971 393.204 83.7194C393.077 83.7337 392.949 83.7191 392.829 83.6769C392.708 83.6346 392.599 83.5657 392.508 83.4753L390.456 81.5227C390.259 81.3363 390.142 81.08 390.131 80.8085C390.118 80.675 390.137 80.5403 390.188 80.4159C390.238 80.2916 390.318 80.1813 390.42 80.0944C391.05 79.4681 391.8 78.9761 392.626 78.648C393.368 78.3722 394.143 78.193 394.931 78.1146C395.692 78.0515 396.457 78.0515 397.218 78.1146C397.971 78.1809 398.677 78.2261 399.334 78.2502C399.938 78.2807 400.544 78.2474 401.142 78.1508C401.656 78.0708 402.13 77.8229 402.488 77.4457C402.806 77.1176 403.038 76.7177 403.168 76.2801C403.297 75.8425 403.318 75.3802 403.23 74.9325C403.005 73.8236 402.416 72.8214 401.557 72.0849C400.835 71.3788 399.913 70.9129 398.916 70.7511C397.919 70.5893 396.897 70.7394 395.989 71.1809C395.766 71.2791 395.527 71.3372 395.284 71.3527C395.16 71.3453 395.039 71.3126 394.929 71.2566C394.819 71.2006 394.721 71.1226 394.642 71.0273L392.454 68.939C392.297 68.7966 392.2 68.5993 392.183 68.3876C392.177 68.2758 392.195 68.164 392.236 68.0597C392.276 67.9553 392.338 67.8606 392.418 67.7819C393.102 67.1316 393.933 66.657 394.841 66.3988C395.872 66.0905 396.949 65.9651 398.023 66.0282C399.205 66.1002 400.368 66.3627 401.467 66.8056C402.642 67.269 403.715 67.9602 404.622 68.8396H404.658Z" fill="white"/>
</g>
<path d="M69.4355 312.522C72.3012 314.267 76.1071 314.33 79.696 313.073L82.408 294.089L69.752 290.853L69.4355 312.522Z" fill="#FFA8A7"/>
<path d="M89.8578 330.692C90.1742 331.018 89.9843 333.404 89.5956 333.938C89.2069 334.471 87.0283 336.279 83.0145 336.351C79.1906 336.415 75.7825 335.718 73.6491 334.173C71.5156 332.627 70.4941 331.009 70.3947 328.821C70.2952 326.633 70.6568 324.563 69.7167 322.836C68.7765 321.11 67.6465 319.663 67.3572 318.814C67.0176 317.274 67.0176 315.679 67.3572 314.14L89.8578 330.692Z" fill="#263238"/>
<path d="M80.5733 312.278C80.5911 313.102 80.7064 313.921 80.9168 314.719C81.4098 316.428 82.1047 318.073 82.987 319.618C83.4258 320.425 83.9181 321.201 84.4605 321.942C85.5363 323.379 86.9104 324.581 88.0765 325.964C89.3144 327.275 90.0589 328.975 90.1828 330.774C90.1828 333.775 86.8832 334.616 84.3611 334.923C81.6204 335.257 78.8395 334.97 76.2251 334.082C74.8568 333.645 73.6438 332.822 72.7314 331.712C71.8191 330.603 71.2461 329.254 71.0813 327.827C70.9819 326.986 71.0813 326.145 71.0271 325.304C70.802 323.376 70.0998 321.533 68.984 319.944C68.3354 319.024 67.7897 318.036 67.3568 316.997C66.6698 315.107 67.4111 313.055 68.0077 311.238C68.523 309.674 68.9117 307.785 69.4903 307.966C69.4903 308.282 69.4903 308.987 69.4903 308.987C69.653 309.34 70.0508 309.593 70.1502 310.009C70.244 310.438 70.374 310.858 70.5389 311.265C70.7851 311.895 71.2211 312.432 71.7864 312.802C71.8859 311.672 71.9853 310.542 72.0757 309.421C72.0501 309.243 72.0653 309.061 72.1204 308.89C72.1754 308.719 72.2688 308.562 72.3934 308.432C72.5181 308.302 72.6706 308.203 72.8396 308.141C73.0085 308.079 73.1894 308.056 73.3684 308.074C75.489 307.686 77.6561 307.622 79.7959 307.884C79.9571 307.896 80.1143 307.94 80.2585 308.013C80.4028 308.086 80.5313 308.187 80.6366 308.309C80.747 308.549 80.7816 308.817 80.736 309.078C80.6241 310.141 80.5698 311.209 80.5733 312.278Z" fill="#ECBD2F"/>
<path opacity="0.2" d="M80.5733 312.278C80.5911 313.102 80.7064 313.921 80.9168 314.719C81.4098 316.428 82.1047 318.073 82.987 319.618C83.4258 320.425 83.9181 321.201 84.4605 321.942C85.5363 323.379 86.9104 324.581 88.0765 325.964C89.3144 327.275 90.0589 328.975 90.1828 330.774C90.1828 333.775 86.8832 334.616 84.3611 334.923C81.6204 335.257 78.8395 334.97 76.2251 334.082C74.8568 333.645 73.6438 332.822 72.7314 331.712C71.8191 330.603 71.2461 329.254 71.0813 327.827C70.9819 326.986 71.0813 326.145 71.0271 325.304C70.802 323.376 70.0998 321.533 68.984 319.944C68.3354 319.024 67.7897 318.036 67.3568 316.997C66.6698 315.107 67.4111 313.055 68.0077 311.238C68.523 309.674 68.9117 307.785 69.4903 307.966C69.4903 308.282 69.4903 308.987 69.4903 308.987C69.653 309.34 70.0508 309.593 70.1502 310.009C70.244 310.438 70.374 310.858 70.5389 311.265C70.7851 311.895 71.2211 312.432 71.7864 312.802C71.8859 311.672 71.9853 310.542 72.0757 309.421C72.0501 309.243 72.0653 309.061 72.1204 308.89C72.1754 308.719 72.2688 308.562 72.3934 308.432C72.5181 308.302 72.6706 308.203 72.8396 308.141C73.0085 308.079 73.1894 308.056 73.3684 308.074C75.489 307.686 77.6561 307.622 79.7959 307.884C79.9571 307.896 80.1143 307.94 80.2585 308.013C80.4028 308.086 80.5313 308.187 80.6366 308.309C80.747 308.549 80.7816 308.817 80.736 309.078C80.6241 310.141 80.5698 311.209 80.5733 312.278Z" fill="black"/>
<path d="M83.3576 320.269C82.2909 319.365 79.7958 319.229 78.4218 319.302C77.0297 319.348 75.6715 319.743 74.4713 320.45C74.2939 320.558 74.0848 320.602 73.879 320.574C73.6732 320.546 73.4833 320.448 73.3413 320.296C73.2578 320.208 73.1946 320.103 73.1561 319.988C73.1177 319.872 73.1049 319.75 73.1187 319.63C73.1324 319.509 73.1725 319.393 73.2359 319.289C73.2994 319.186 73.3847 319.098 73.4859 319.031C74.8144 318.165 76.3575 317.686 77.9427 317.648C81.3598 317.593 82.2638 318.208 82.2638 318.208C82.2638 318.208 83.7463 319.293 83.3576 320.269Z" fill="#455A64"/>
<path d="M85.7533 323.469C84.3973 322.565 81.6492 322.565 80.2751 322.61C78.9086 322.675 77.5833 323.099 76.4331 323.84C76.2549 323.95 76.0438 323.995 75.836 323.967C75.6282 323.939 75.4366 323.84 75.2941 323.686C75.2095 323.598 75.1455 323.493 75.1068 323.377C75.0682 323.261 75.0557 323.138 75.0705 323.017C75.0852 322.896 75.1267 322.779 75.1919 322.676C75.2572 322.573 75.3445 322.486 75.4477 322.421C76.7839 321.507 78.3502 320.986 79.9677 320.92C83.3396 320.857 84.1804 321.598 84.1804 321.598C84.568 321.769 84.9113 322.027 85.184 322.351C85.4566 322.675 85.6514 323.058 85.7533 323.469Z" fill="#455A64"/>
<path d="M76.7762 314.366C78.2039 314.195 79.6515 314.394 80.9798 314.945C81.5493 315.315 81.8838 316.264 81.4951 316.481C80.3227 315.937 79.0338 315.692 77.7435 315.767C76.4801 315.823 75.2357 316.095 74.0642 316.572C73.7659 316.68 73.4224 316.843 73.1602 316.988C73.0636 317.037 72.9579 317.066 72.8495 317.073C72.7412 317.079 72.6327 317.063 72.5308 317.026C72.4289 316.989 72.3358 316.931 72.2575 316.856C72.1791 316.781 72.1171 316.69 72.0754 316.59C72.0187 316.423 72.022 316.241 72.0847 316.076C72.1474 315.911 72.2656 315.773 72.419 315.686C73.7609 314.941 75.2464 314.491 76.7762 314.366Z" fill="#455A64"/>
<path d="M105.108 305.389C107.314 310.913 110.767 309.213 116.028 306.031L116.824 287.174L103.436 285.935L105.108 305.389Z" fill="#FFA8A7"/>
<path d="M136.223 318.687C136.467 319.575 136.364 320.522 135.934 321.336C135.518 322.095 131.333 324.174 125.863 323.505C121.808 323.006 117.962 321.426 114.726 318.931C112.71 317.431 110.55 317.06 107.838 316.753C105.126 316.445 103.092 315.505 102.558 314.203C102.025 312.902 102.838 310.75 102.838 310.75L136.223 318.687Z" fill="#263238"/>
<path d="M114.926 301.303C115.42 301.199 115.906 301.06 116.381 300.887C116.647 300.789 116.938 300.789 117.204 300.887C117.547 301.041 117.656 301.457 117.737 301.791C117.814 302.609 117.972 303.418 118.207 304.205C118.577 304.858 119.068 305.435 119.654 305.905C120.957 307.071 122.377 308.098 123.893 308.969C125.638 310.036 127.356 310.877 129.155 311.808C130.954 312.739 133.476 313.408 134.904 314.52C136.974 316.093 137.056 319.754 134.524 321.056C132.346 322.186 126.705 323.234 120.964 321.264C117.828 320.188 114.483 316.599 110.324 316.047C107.676 315.704 104.15 315.288 102.55 313.182C101.971 312.278 102.478 309.656 102.948 306.592C103.373 303.88 103.761 299.54 104.638 299.83L104.701 300.661L105.768 301.936C106.002 302.185 106.249 302.42 106.509 302.641C106.795 302.975 107.097 303.295 107.413 303.599C107.843 303.967 108.377 304.192 108.941 304.241C109.208 304.258 109.475 304.198 109.71 304.069C110.162 303.816 110.225 303.22 110.614 302.849C111.034 302.417 111.539 302.075 112.096 301.846C112.871 301.57 113.68 301.406 114.501 301.357C114.643 301.349 114.785 301.33 114.926 301.303Z" fill="#ECBD2F"/>
<path opacity="0.2" d="M114.926 301.303C115.42 301.199 115.906 301.06 116.381 300.887C116.647 300.789 116.938 300.789 117.204 300.887C117.547 301.041 117.656 301.457 117.737 301.791C117.814 302.609 117.972 303.418 118.207 304.205C118.577 304.858 119.068 305.435 119.654 305.905C120.957 307.071 122.377 308.098 123.893 308.969C125.638 310.036 127.356 310.877 129.155 311.808C130.954 312.739 133.476 313.408 134.904 314.52C136.974 316.093 137.056 319.754 134.524 321.056C132.346 322.186 126.705 323.234 120.964 321.264C117.828 320.188 114.483 316.599 110.324 316.047C107.676 315.704 104.15 315.288 102.55 313.182C101.971 312.278 102.478 309.656 102.948 306.592C103.373 303.88 103.761 299.54 104.638 299.83L104.701 300.661L105.768 301.936C106.002 302.185 106.249 302.42 106.509 302.641C106.795 302.975 107.097 303.295 107.413 303.599C107.843 303.967 108.377 304.192 108.941 304.241C109.208 304.258 109.475 304.198 109.71 304.069C110.162 303.816 110.225 303.22 110.614 302.849C111.034 302.417 111.539 302.075 112.096 301.846C112.871 301.57 113.68 301.406 114.501 301.357C114.643 301.349 114.785 301.33 114.926 301.303Z" fill="black"/>
<path d="M121.498 307.36C121.324 306.985 121.059 306.658 120.728 306.411C120.396 306.163 120.009 306.001 119.599 305.941C118.406 305.651 116.227 306.429 114.844 307.45C114.713 307.546 114.607 307.672 114.536 307.818C114.464 307.964 114.43 308.125 114.435 308.287C114.44 308.45 114.485 308.608 114.566 308.749C114.647 308.89 114.761 309.009 114.898 309.096C115.073 309.201 115.274 309.251 115.478 309.24C115.681 309.228 115.876 309.156 116.037 309.032C117.567 307.779 119.528 307.178 121.498 307.36Z" fill="#455A64"/>
<path d="M125.122 309.683C124.879 309.299 124.546 308.978 124.153 308.748C123.76 308.519 123.317 308.387 122.862 308.363C120.997 308.345 119.174 308.918 117.655 310C117.527 310.089 117.421 310.208 117.349 310.346C117.276 310.485 117.238 310.639 117.238 310.795C117.238 310.952 117.276 311.106 117.349 311.244C117.421 311.383 117.527 311.502 117.655 311.591C117.825 311.693 118.021 311.741 118.218 311.728C118.415 311.715 118.604 311.642 118.758 311.518C119.612 310.753 120.628 310.19 121.73 309.872C122.832 309.555 123.992 309.49 125.122 309.683Z" fill="#455A64"/>
<path d="M129.154 311.799C128.873 311.44 128.517 311.146 128.111 310.936C127.706 310.727 127.26 310.608 126.804 310.587C125.004 310.602 123.255 311.184 121.805 312.251C121.679 312.344 121.578 312.466 121.51 312.607C121.442 312.748 121.409 312.904 121.415 313.06C121.42 313.217 121.463 313.37 121.541 313.506C121.618 313.642 121.727 313.757 121.859 313.842C122.023 313.952 122.219 314.006 122.417 313.995C122.614 313.983 122.803 313.907 122.953 313.778C123.76 312.987 124.741 312.395 125.818 312.051C126.895 311.707 128.038 311.621 129.154 311.799Z" fill="#455A64"/>
<path d="M69.0838 261.627C69.4906 252.523 71.4251 247.786 71.6963 245.264C71.6963 245.264 72.4376 195.183 73.658 179.986L118.496 178.079C119.156 194.351 119.753 238.068 119.4 243.854C119.066 249.396 116.815 297.461 116.815 297.461C110.487 299.441 103.734 296.557 103.734 296.557C103.734 296.557 99.9734 269.211 99.3587 263.182C98.9224 257.758 99.0618 252.304 99.7746 246.91L96.9089 207.974C96.9089 207.974 93.4466 238.168 91.738 249.558C89.7854 262.585 81.3601 302.967 81.3601 302.967C75.3033 304.476 69.4092 301.864 69.4092 301.864C69.4092 301.864 68.4871 274.816 69.0838 261.627Z" fill="#455A64"/>
<path d="M96.918 208.01L97.7677 202.641C100.38 202.252 106.998 198.121 110.912 194.505C108.124 198.724 104.351 202.202 99.9192 204.638L99.7836 246.928L96.918 208.01Z" fill="#37474F"/>
<path d="M115.305 151.7C112.259 144.748 107.015 133.042 107.015 133.042L105.687 114.058C107.626 114.119 109.561 114.292 111.481 114.573C114.302 115.016 118.776 117.71 120.819 122.79C122.347 126.56 130.284 149.558 130.284 149.558L144.116 142.272C147.659 140.021 148.916 136.287 151.176 134.136C153.436 131.984 155.696 131.659 158.2 129.932C160.704 128.205 161.689 126.822 162.322 128.549C162.955 130.275 160.153 132.924 159.61 133.584C159.068 134.244 156.347 135.654 159.818 135.835C163.289 136.016 170.313 132.635 171.995 132.056C173.676 131.478 173.532 133.476 172.655 134.714C171.778 135.953 171.688 139.587 170.223 141.621C168.668 143.79 167.827 144.721 164.492 146.014C161.391 147.207 154.964 147.515 151.655 149.422C148.346 151.33 140.337 158.571 134.994 162.286C127.825 167.276 123.794 167.602 120.982 163.624C118.171 159.646 116.381 154.15 115.305 151.7Z" fill="#FFA8A7"/>
<path d="M103.814 113.651C108.515 113.289 114.057 113.579 117.121 116.363C119.571 118.596 120.493 119.979 123.223 127.699C125.031 132.879 128.9 144.812 128.9 144.812C123.588 146.01 118.821 148.931 115.34 153.12L106.526 133.313L103.814 113.651Z" fill="#E0E0E0"/>
<path d="M130.284 149.513C127.902 150.356 125.853 151.94 124.436 154.033C124.436 154.033 124.77 150.417 129.86 148.256L130.284 149.513Z" fill="#F28F8F"/>
<path d="M92.5602 112.801C90.3337 112.709 88.106 112.953 85.952 113.524C81.8207 114.618 74.417 116.697 74.417 116.697C72.0666 117.918 71.1535 121.986 70.6202 124.327C68.9206 131.821 73.3322 148.735 74.0102 155.325C74.6882 161.915 73.2237 182.102 73.2237 182.102C78.277 187.96 105.659 191.847 118.993 182.102C118.993 182.102 119.572 135.754 118.261 129.1C116.272 119.03 113.316 114.248 102.893 113.642L92.5602 112.801Z" fill="#F5F5F5"/>
<path d="M98.4088 87.9411L95.4347 89.5773C95.2289 89.1678 95.1863 88.6955 95.3156 88.2558C95.4448 87.8161 95.7361 87.4419 96.1307 87.2089C96.3273 87.1021 96.5435 87.0364 96.7662 87.0155C96.9889 86.9947 97.2135 87.0193 97.4264 87.0877C97.6393 87.1562 97.8362 87.2671 98.005 87.4138C98.1739 87.5604 98.3113 87.7398 98.4088 87.9411Z" fill="#263238"/>
<path d="M111.346 89.1344L108.634 87.0461C108.761 86.8627 108.925 86.7072 109.114 86.5889C109.304 86.4707 109.515 86.3923 109.736 86.3585C109.957 86.3246 110.182 86.3361 110.398 86.3922C110.614 86.4482 110.817 86.5477 110.993 86.6845C111.352 86.9715 111.589 87.3846 111.654 87.8397C111.72 88.2948 111.61 88.7578 111.346 89.1344Z" fill="#263238"/>
<path d="M84.7411 78.4762C84.7411 78.4762 81.5409 78.9192 80.3657 81.36C79.3533 83.4573 79.7149 88.5197 81.0799 94.016C81.8513 97.5821 83.003 101.055 84.5151 104.376C85.0493 105.317 85.9222 106.018 86.9559 106.338L86.7841 99.7745L86.5491 95.2545C86.5491 95.2545 89.469 91.2588 89.7944 88.0225C90.2103 83.8098 89.3244 82.0832 89.3244 82.0832L84.7411 78.4762Z" fill="#263238"/>
<path d="M89.9024 84.8042C89.9144 88.0434 91.2108 91.1456 93.5072 93.4301C95.8035 95.7147 98.9124 96.995 102.152 96.9902C108.895 96.9902 113.958 91.4306 113.904 84.6777C113.849 77.9248 108.787 72.5189 102.034 72.546C98.802 72.5699 95.711 73.8731 93.4374 76.1704C91.1638 78.4677 89.8927 81.5721 89.9024 84.8042Z" fill="#263238"/>
<path d="M86.7838 94.4861C85.6809 95.4443 84.786 92.9764 83.8639 92.0091C82.9418 91.0418 79.9134 89.7401 78.4399 92.9131C76.9664 96.0861 79.7597 100.688 82.0559 101.573C82.7491 101.836 83.5104 101.857 84.2172 101.634C84.924 101.411 85.5352 100.957 85.9522 100.344V114.808C89.4326 121.082 95.5707 120.883 98.8522 120.53C102.134 120.178 102.848 116.77 100.452 114.021V109.501C102.276 109.788 104.125 109.876 105.967 109.764C108.968 109.294 110.487 107.052 111.391 103.77C112.837 98.536 113.425 89.7491 111.391 79.5972C108.028 76.9937 96.3662 77.4276 89.306 81.9024C89.8574 91.0057 87.8325 93.5369 86.7838 94.4861Z" fill="#FFA8A7"/>
<path d="M111.987 74.5709C112.441 72.6864 112.645 70.7502 112.593 68.8125C112.593 68.0531 112.403 67.131 111.689 66.8418C110.975 66.5525 110.27 67.0768 109.655 67.4926C107.051 69.2464 103.815 69.7436 100.678 69.9153C95.2542 70.2137 86.9645 69.8611 84.2073 75.8004C83.4389 77.4457 83.3033 79.1813 84.8221 80.3204C86.1761 81.2274 87.7244 81.8034 89.3421 82.0018C92.0541 82.4809 94.7661 83.0776 97.5504 83.4482C100.335 83.8189 103.643 84.1805 106.401 83.3307C108.724 82.6166 111.083 82.0018 112.81 80.1577C114.306 78.5496 115.151 76.442 115.178 74.2455C115.178 73.9381 115.115 73.5494 114.808 73.4681C114.654 73.4488 114.499 73.4805 114.365 73.5585L111.987 74.5709Z" fill="#263238"/>
<path d="M100.425 109.601C100.425 109.601 93.7176 108.272 91.3853 107.034C90.0037 106.318 88.8697 105.203 88.1309 103.833C88.4744 105.201 89.0892 106.486 89.9389 107.612C91.6655 109.8 100.407 111.382 100.407 111.382L100.425 109.601Z" fill="#F28F8F"/>
<path d="M99.0783 92.3798C99.0694 92.6763 98.9733 92.9636 98.8021 93.2058C98.631 93.4481 98.3922 93.6345 98.1157 93.7419C97.8391 93.8492 97.5371 93.8728 97.2473 93.8095C96.9575 93.7462 96.6928 93.599 96.4861 93.3862C96.2795 93.1734 96.1401 92.9044 96.0854 92.6128C96.0308 92.3213 96.0632 92.0201 96.1787 91.7469C96.2941 91.4736 96.4875 91.2405 96.7347 91.0765C96.9819 90.9125 97.2719 90.825 97.5686 90.8249C97.9746 90.832 98.3613 90.9996 98.6442 91.2909C98.927 91.5822 99.0831 91.9737 99.0783 92.3798Z" fill="#263238"/>
<path d="M101.248 102.821C101.255 103.203 101.111 103.573 100.847 103.849C100.583 104.125 100.22 104.285 99.8378 104.294C99.4533 104.287 99.0873 104.128 98.8197 103.852C98.5521 103.576 98.4046 103.205 98.4094 102.821C98.4058 102.632 98.4395 102.445 98.5084 102.269C98.5773 102.093 98.6802 101.933 98.8112 101.797C98.9421 101.661 99.0986 101.552 99.2717 101.476C99.4447 101.401 99.6309 101.36 99.8197 101.356C100.203 101.364 100.567 101.521 100.835 101.795C101.102 102.07 101.25 102.438 101.248 102.821Z" fill="#B16668"/>
<path d="M97.1798 87.6338L94.0701 89.5954C93.8135 89.1685 93.7323 88.6589 93.8436 88.1734C93.9548 87.6879 94.2499 87.2645 94.6667 86.9919C94.8729 86.8655 95.1024 86.7818 95.3415 86.7457C95.5807 86.7095 95.8246 86.7218 96.0589 86.7816C96.2933 86.8415 96.5132 86.9477 96.7057 87.0941C96.8983 87.2405 97.0595 87.424 97.1798 87.6338Z" fill="#263238"/>
<path d="M108.154 85.7173L111.426 87.1818C111.338 87.3966 111.207 87.5912 111.042 87.754C110.876 87.9168 110.679 88.0443 110.463 88.1288C110.246 88.2133 110.015 88.253 109.783 88.2456C109.551 88.2382 109.323 88.1839 109.112 88.0857C108.685 87.8826 108.35 87.5266 108.172 87.088C107.995 86.6495 107.988 86.1603 108.154 85.7173Z" fill="#263238"/>
<path d="M109.881 91.9278C109.87 92.2127 109.776 92.4882 109.61 92.7201C109.444 92.952 109.214 93.1301 108.948 93.2323C108.681 93.3344 108.391 93.3562 108.113 93.2948C107.834 93.2334 107.58 93.0915 107.381 92.8869C107.183 92.6822 107.049 92.4238 106.996 92.1436C106.943 91.8634 106.974 91.5739 107.084 91.3109C107.194 91.048 107.379 90.8232 107.616 90.6644C107.853 90.5057 108.131 90.42 108.416 90.4181C108.81 90.4252 109.185 90.588 109.46 90.8709C109.734 91.1537 109.885 91.5337 109.881 91.9278Z" fill="#263238"/>
<path d="M102.486 89.3785L103.029 99.431L107.793 98.1654L102.486 89.3785Z" fill="#F28F8F"/>
<path d="M18.0796 130.782C19.6435 131.622 26.0167 136.106 29.4791 136.495C30.9435 136.658 31.3413 136.423 31.2871 136.043C31.2147 135.519 30.2836 134.732 30.0576 134.307C29.6689 133.566 27.3456 130.492 28.2496 128.883C29.1536 127.274 29.9401 128.811 32.0916 130.917C34.2431 133.024 36.4489 133.756 38.3383 136.206C40.2276 138.656 40.8604 142.534 43.9883 145.345L56.4454 153.852C56.4454 153.852 62.2491 126.922 64.7983 123.749C67.5103 120.413 79.1448 127.681 76.704 138.285C74.2632 148.889 68.7036 167.294 64.8345 170.901C62.3395 173.243 57.0872 171.037 50.5332 165.206C45.3533 160.596 38.2569 153.68 35.2556 151.23C32.2543 148.78 26.0167 147.46 23.1511 145.806C20.0684 143.998 19.3904 142.94 18.2062 140.545C17.0943 138.294 17.5915 134.687 16.9315 133.313C16.2716 131.939 16.4886 129.941 18.0796 130.782Z" fill="#FFA8A7"/>
<path d="M74.4164 116.697C78.4121 119.192 78.611 122.826 78.8099 126.985C78.8664 131.853 78.0961 136.694 76.5318 141.304C74.8413 146.538 72.1564 156.094 72.1564 156.094C72.1564 156.094 61.7243 156.338 56.3545 151.7C56.3545 151.7 58.8043 141.395 60.531 133.62C62.2576 125.846 64.3549 117.574 74.4164 116.697Z" fill="#E0E0E0"/>
<path d="M56.4004 153.87C59.248 155.452 60.9204 158.851 61.4357 160.198C61.3124 158.629 60.8187 157.113 59.9952 155.772C59.1718 154.432 58.042 153.306 56.6987 152.487L56.4004 153.87Z" fill="#F28F8F"/>
<path d="M164.627 349.251L234.398 389.534V404.377L164.627 364.095V349.251Z" fill="#ECBD2F"/>
<path opacity="0.35" d="M164.627 349.251L234.398 389.534V404.377L164.627 364.095V349.251Z" fill="black"/>
<path d="M304.168 349.251L234.397 389.534V404.377L304.168 364.095V349.251Z" fill="#ECBD2F"/>
<path opacity="0.2" d="M304.168 349.251L234.397 389.534V404.377L304.168 364.095V349.251Z" fill="black"/>
<path d="M304.168 349.251L234.398 308.978L164.627 349.251L234.398 389.534L304.168 349.251Z" fill="#ECBD2F"/>
<path opacity="0.15" d="M304.168 349.251L234.398 308.978L164.627 349.251L234.398 389.534L304.168 349.251Z" fill="black"/>
<path opacity="0.1" d="M234.398 389.534V385.294L171.967 349.251H164.627L234.398 389.534Z" fill="black"/>
<path opacity="0.1" d="M234.397 308.978V313.218L296.828 349.251H304.168L234.397 308.978Z" fill="black"/>
<path d="M304.168 349.251H296.828L234.397 385.294V389.534L304.168 349.251Z" fill="#ECBD2F"/>
<path d="M234.398 308.978V313.218L171.967 349.251H164.627L234.398 308.978Z" fill="#ECBD2F"/>
<path d="M234.651 331.768L264.628 349.071C266.869 350.372 266.869 352.47 264.628 353.762L242.272 366.708C241.012 367.351 239.618 367.687 238.204 367.687C236.789 367.687 235.395 367.351 234.136 366.708L204.159 349.405C201.917 348.103 201.917 346.006 204.159 344.713L226.524 331.768C227.782 331.126 229.175 330.791 230.587 330.791C232 330.791 233.393 331.126 234.651 331.768Z" fill="#37474F"/>
<path d="M242.272 366.708L263.886 354.223L234.651 337.346C233.389 336.71 231.996 336.379 230.583 336.379C229.17 336.379 227.777 336.71 226.515 337.346L204.9 349.848L234.136 366.708C235.395 367.351 236.789 367.687 238.204 367.687C239.618 367.687 241.012 367.351 242.272 366.708Z" fill="#455A64"/>
<path d="M216.543 349.278L229.66 341.712C229.904 341.59 230.174 341.526 230.447 341.526C230.72 341.526 230.989 341.59 231.233 341.712L232.842 342.616C233.276 342.86 233.276 343.267 232.842 343.52L219.725 351.086C219.483 351.209 219.215 351.273 218.943 351.273C218.672 351.273 218.404 351.209 218.161 351.086L216.552 350.182C216.458 350.151 216.377 350.09 216.319 350.01C216.26 349.929 216.229 349.833 216.228 349.734C216.227 349.634 216.256 349.537 216.313 349.456C216.37 349.374 216.45 349.312 216.543 349.278Z" fill="#263238"/>
<path d="M236.133 360.606L249.25 353.039C249.493 352.917 249.761 352.853 250.032 352.853C250.304 352.853 250.572 352.917 250.814 353.039L252.432 353.943C252.866 354.187 252.866 354.594 252.432 354.847L239.315 362.414C239.073 362.536 238.805 362.6 238.533 362.6C238.262 362.6 237.994 362.536 237.751 362.414L236.142 361.51C236.048 361.478 235.967 361.417 235.908 361.337C235.85 361.256 235.818 361.16 235.817 361.061C235.816 360.962 235.846 360.864 235.903 360.783C235.959 360.701 236.04 360.639 236.133 360.606Z" fill="#263238"/>
<path d="M204.087 378.568C204.013 377.196 203.616 375.861 202.928 374.672C202.24 373.482 201.28 372.473 200.127 371.725C199.729 371.434 199.259 371.255 198.768 371.207C198.276 371.159 197.781 371.245 197.334 371.454L195.625 372.448C195.223 372.732 194.904 373.117 194.7 373.565C194.497 374.014 194.417 374.508 194.468 374.997C194.543 376.369 194.94 377.704 195.626 378.895C196.312 380.085 197.269 381.097 198.419 381.85C198.819 382.141 199.29 382.319 199.783 382.367C200.276 382.415 200.772 382.33 201.221 382.121L202.921 381.099C203.32 380.817 203.638 380.434 203.843 379.99C204.048 379.546 204.132 379.055 204.087 378.568Z" fill="#ECBD2F"/>
<path opacity="0.1" d="M198.418 372.746C199.571 373.494 200.531 374.504 201.219 375.693C201.907 376.882 202.304 378.218 202.378 379.59C202.378 382.112 200.57 383.133 198.418 381.877C197.269 381.124 196.312 380.112 195.626 378.922C194.939 377.731 194.543 376.396 194.468 375.024C194.468 372.511 196.24 371.49 198.418 372.746Z" fill="black"/>
<path d="M152.559 401.62C148.148 401.697 143.79 400.642 139.903 398.556L93.6181 371.833C89.9027 369.682 87.8506 366.717 87.8506 363.48C87.8506 360.244 89.9027 357.288 93.6181 355.136L147.243 324.174C153.119 320.784 158.091 312.187 158.091 305.398V135.69C158.091 135.211 158.282 134.751 158.621 134.412C158.96 134.073 159.42 133.882 159.899 133.882C160.379 133.882 160.839 134.073 161.178 134.412C161.517 134.751 161.707 135.211 161.707 135.69V305.398C161.707 313.589 156.157 323.216 149.051 327.311L95.4261 358.273C92.8768 359.747 91.4666 361.591 91.4666 363.48C91.4666 365.37 92.8768 367.223 95.4261 368.696L141.711 395.419C147.686 398.872 157.413 398.872 163.407 395.419L197.533 375.73C197.739 375.599 197.969 375.511 198.209 375.471C198.45 375.432 198.696 375.441 198.933 375.499C199.17 375.557 199.393 375.663 199.588 375.809C199.783 375.955 199.946 376.139 200.068 376.351C200.19 376.562 200.268 376.795 200.298 377.037C200.327 377.279 200.307 377.525 200.239 377.759C200.171 377.993 200.057 378.211 199.902 378.4C199.748 378.589 199.557 378.744 199.341 378.857L165.215 398.556C161.328 400.644 156.97 401.699 152.559 401.62Z" fill="#37474F"/>
<path d="M71.3433 70.7922C71.3166 70.6697 71.3156 70.5429 71.3405 70.4199C71.3654 70.297 71.4156 70.1806 71.488 70.0781C71.5561 69.9709 71.6461 69.8793 71.752 69.8092C71.8579 69.7391 71.9774 69.6921 72.1027 69.6713L76.4961 68.8215C76.6201 68.7934 76.7485 68.7918 76.8731 68.8167C76.9978 68.8416 77.1157 68.8926 77.2193 68.9662C77.4293 69.1107 77.5752 69.331 77.6261 69.5809L78.3041 73.1065C78.3296 73.2297 78.3291 73.3568 78.3026 73.4798C78.2762 73.6027 78.2243 73.7188 78.1504 73.8206C78.0842 73.9285 77.9961 74.0212 77.8918 74.0929C77.7874 74.1645 77.6692 74.2134 77.5448 74.2365L73.1423 75.0772C73.0197 75.104 72.8929 75.1049 72.77 75.08C72.647 75.0551 72.5306 75.0049 72.4281 74.9325C72.3209 74.8644 72.2293 74.7745 72.1592 74.6685C72.0891 74.5626 72.0421 74.4431 72.0213 74.3178L71.3433 70.7922ZM67.6731 51.754C67.6481 51.6299 67.648 51.5021 67.6728 51.3779C67.6975 51.2538 67.7466 51.1358 67.8172 51.0307C67.8878 50.9256 67.9785 50.8356 68.0841 50.7658C68.1897 50.696 68.3081 50.6478 68.4324 50.624L72.8349 49.7742C72.9581 49.7488 73.0852 49.7493 73.2082 49.7757C73.3312 49.8022 73.4473 49.854 73.5491 49.9279C73.6553 49.9951 73.7463 50.0836 73.8163 50.1879C73.8863 50.2922 73.9339 50.4099 73.9559 50.5336L76.8396 65.6033C76.8651 65.7264 76.8646 65.8536 76.8381 65.9766C76.8117 66.0995 76.7599 66.2156 76.686 66.3174C76.6188 66.4236 76.5303 66.5146 76.426 66.5846C76.3217 66.6547 76.204 66.7022 76.0803 66.7242L71.6778 67.574C71.5546 67.5995 71.4275 67.599 71.3045 67.5725C71.1815 67.546 71.0654 67.4942 70.9636 67.4203C70.8575 67.3532 70.7665 67.2646 70.6964 67.1603C70.6264 67.056 70.5788 66.9383 70.5568 66.8146L67.6731 51.754Z" fill="#ECBD2F"/>
<path d="M64.003 85.5455C63.9185 85.4518 63.8533 85.3424 63.8112 85.2235C63.769 85.1046 63.7508 84.9785 63.7575 84.8525C63.7643 84.7265 63.7958 84.6031 63.8503 84.4893C63.9049 84.3755 63.9813 84.2737 64.0753 84.1895L67.4111 81.1973C67.5042 81.1116 67.6143 81.0463 67.7342 81.0058C67.8541 80.9654 67.9812 80.9505 68.1072 80.9622C68.2325 80.9649 68.3558 80.9936 68.4694 81.0465C68.5831 81.0995 68.6844 81.1754 68.7671 81.2696L71.1627 83.9816C71.2472 84.0753 71.3124 84.1847 71.3546 84.3036C71.3967 84.4225 71.4149 84.5486 71.4082 84.6746C71.4015 84.8006 71.3699 84.924 71.3154 85.0378C71.2609 85.1516 71.1844 85.2534 71.0904 85.3376L67.7998 88.2937C67.7067 88.3794 67.5966 88.4446 67.4767 88.4851C67.3568 88.5256 67.2298 88.5404 67.1037 88.5287C66.9785 88.526 66.8551 88.4973 66.7415 88.4444C66.6279 88.3915 66.5265 88.3155 66.4438 88.2213L64.003 85.5455ZM51.0668 71.0815C50.8967 70.8908 50.8089 70.6406 50.8227 70.3854C50.8265 70.2595 50.8566 70.1357 50.9111 70.022C50.9656 69.9084 51.0433 69.8074 51.1391 69.7255L54.4749 66.7333C54.5672 66.6459 54.6769 66.5791 54.7969 66.537C54.9168 66.4949 55.0443 66.4787 55.1709 66.4892C55.2969 66.493 55.4207 66.5231 55.5343 66.5776C55.648 66.6321 55.749 66.7098 55.8309 66.8056L66.0641 78.2502C66.1499 78.3433 66.2151 78.4534 66.2556 78.5733C66.2961 78.6932 66.3109 78.8203 66.2992 78.9463C66.2965 79.0716 66.2678 79.195 66.2149 79.3086C66.162 79.4222 66.086 79.5235 65.9918 79.6062L62.647 82.5985C62.555 82.683 62.4464 82.7475 62.3281 82.788C62.2099 82.8285 62.0845 82.844 61.96 82.8335C61.8332 82.8321 61.708 82.804 61.5928 82.751C61.4775 82.6981 61.3747 82.6214 61.291 82.5262L51.0668 71.0815Z" fill="#ECBD2F"/>
<g opacity="0.6">
<path opacity="0.6" d="M64.003 85.5455C63.9185 85.4518 63.8533 85.3424 63.8112 85.2235C63.769 85.1046 63.7508 84.9785 63.7575 84.8525C63.7643 84.7265 63.7958 84.6031 63.8503 84.4893C63.9049 84.3755 63.9813 84.2737 64.0753 84.1895L67.4111 81.1973C67.5042 81.1116 67.6143 81.0463 67.7342 81.0058C67.8541 80.9654 67.9812 80.9505 68.1072 80.9622C68.2325 80.9649 68.3558 80.9936 68.4694 81.0465C68.5831 81.0995 68.6844 81.1754 68.7671 81.2696L71.1627 83.9816C71.2472 84.0753 71.3124 84.1847 71.3546 84.3036C71.3967 84.4225 71.4149 84.5486 71.4082 84.6746C71.4015 84.8006 71.3699 84.924 71.3154 85.0378C71.2609 85.1516 71.1844 85.2534 71.0904 85.3376L67.7998 88.2937C67.7067 88.3794 67.5966 88.4446 67.4767 88.4851C67.3568 88.5256 67.2298 88.5404 67.1037 88.5287C66.9785 88.526 66.8551 88.4973 66.7415 88.4444C66.6279 88.3915 66.5265 88.3155 66.4438 88.2213L64.003 85.5455ZM51.0668 71.0815C50.8967 70.8908 50.8089 70.6406 50.8227 70.3854C50.8265 70.2595 50.8566 70.1357 50.9111 70.022C50.9656 69.9084 51.0433 69.8074 51.1391 69.7255L54.4749 66.7333C54.5672 66.6459 54.6769 66.5791 54.7969 66.537C54.9168 66.4949 55.0443 66.4787 55.1709 66.4892C55.2969 66.493 55.4207 66.5231 55.5343 66.5776C55.648 66.6321 55.749 66.7098 55.8309 66.8056L66.0641 78.2502C66.1499 78.3433 66.2151 78.4534 66.2556 78.5733C66.2961 78.6932 66.3109 78.8203 66.2992 78.9463C66.2965 79.0716 66.2678 79.195 66.2149 79.3086C66.162 79.4222 66.086 79.5235 65.9918 79.6062L62.647 82.5985C62.555 82.683 62.4464 82.7475 62.3281 82.788C62.2099 82.8285 62.0845 82.844 61.96 82.8335C61.8332 82.8321 61.708 82.804 61.5928 82.751C61.4775 82.6981 61.3747 82.6214 61.291 82.5262L51.0668 71.0815Z" fill="white"/>
</g>
<path d="M150.064 43.392C151.613 43.295 153.144 43.7605 154.376 44.7028C154.904 45.1833 155.316 45.7767 155.582 46.4389C155.848 47.101 155.961 47.8147 155.913 48.5267C155.959 49.2425 155.845 49.9595 155.579 50.6256C155.313 51.2918 154.902 51.8903 154.376 52.3778C153.152 53.3399 151.619 53.8221 150.064 53.7338H146.448V58.8414C146.45 58.9237 146.435 59.0055 146.404 59.0818C146.373 59.158 146.326 59.227 146.267 59.2843C146.211 59.3419 146.143 59.3875 146.069 59.4185C145.994 59.4496 145.914 59.4654 145.833 59.4651H143.98C143.898 59.4663 143.816 59.451 143.74 59.4201C143.664 59.3892 143.595 59.3433 143.536 59.2851C143.478 59.227 143.432 59.1577 143.402 59.0815C143.371 59.0053 143.355 58.9236 143.357 58.8414V44.0338C143.357 43.9523 143.373 43.8717 143.404 43.7965C143.436 43.7213 143.482 43.6531 143.54 43.5959C143.598 43.5387 143.667 43.4936 143.742 43.4633C143.818 43.4329 143.899 43.4179 143.98 43.4191L150.064 43.392ZM146.448 50.8681H150.001C150.733 50.906 151.459 50.7267 152.089 50.3528C152.365 50.1454 152.582 49.8694 152.718 49.5522C152.855 49.2351 152.906 48.8878 152.867 48.5448C152.911 48.2014 152.862 47.8526 152.725 47.5345C152.588 47.2165 152.369 46.941 152.089 46.7368C151.453 46.381 150.729 46.2118 150.001 46.2486H146.448V50.8681Z" fill="#455A64"/>
<path d="M157.983 50.4794C158.064 50.1139 158.208 49.7652 158.408 49.4488C158.645 49.0538 158.951 48.7047 159.312 48.4183C159.761 48.0715 160.265 47.8026 160.803 47.6227C161.465 47.4051 162.159 47.3012 162.855 47.3154C163.569 47.3041 164.281 47.4079 164.962 47.6227C165.556 47.8121 166.107 48.1196 166.58 48.5267C167.039 48.9391 167.395 49.453 167.62 50.0274C167.875 50.6903 168.001 51.3962 167.99 52.1066V58.8414C167.991 58.9243 167.974 59.0064 167.941 59.0825C167.909 59.1587 167.861 59.2274 167.8 59.2843C167.744 59.3423 167.677 59.3882 167.602 59.4193C167.527 59.4503 167.447 59.4659 167.366 59.4651H165.631C165.548 59.4663 165.467 59.451 165.391 59.4201C165.314 59.3892 165.245 59.3433 165.187 59.2852C165.129 59.227 165.083 59.1577 165.052 59.0815C165.021 59.0053 165.006 58.9236 165.007 58.8414V58.0911C164.644 58.5741 164.17 58.9618 163.624 59.2211C162.904 59.5606 162.114 59.7218 161.319 59.6911C160.706 59.704 160.095 59.6155 159.511 59.429C159.027 59.2766 158.58 59.024 158.2 58.6877C157.852 58.3689 157.575 57.9809 157.386 57.5486C157.195 57.0971 157.099 56.6107 157.106 56.1203C157.083 55.6482 157.173 55.1774 157.368 54.7467C157.563 54.3161 157.857 53.9379 158.227 53.6434C159.133 52.9809 160.195 52.5636 161.31 52.432L165.043 51.7902C165.066 51.5342 165.022 51.2767 164.914 51.0434C164.806 50.8101 164.638 50.6094 164.428 50.4613C163.962 50.192 163.43 50.0575 162.892 50.0726C162.582 50.0568 162.272 50.1125 161.988 50.2353C161.762 50.3486 161.555 50.4949 161.373 50.6692C161.261 50.7731 161.132 50.8586 160.993 50.9223C160.872 50.9698 160.743 50.9943 160.614 50.9947H158.48C158.336 50.9998 158.197 50.9478 158.091 50.85C158.039 50.8055 158.001 50.7467 157.982 50.6809C157.963 50.615 157.963 50.545 157.983 50.4794ZM161.816 56.952C162.286 56.9593 162.754 56.8859 163.199 56.735C163.574 56.6057 163.92 56.4063 164.22 56.1475C164.482 55.9203 164.691 55.6398 164.835 55.3248C164.968 55.0418 165.039 54.7335 165.043 54.4208V54.1496L161.924 54.692C161.447 54.7492 160.987 54.9096 160.577 55.1621C160.444 55.2566 160.336 55.383 160.263 55.5298C160.19 55.6766 160.156 55.8392 160.162 56.0028C160.16 56.1588 160.207 56.3113 160.296 56.4393C160.385 56.5673 160.512 56.6644 160.659 56.717C161.024 56.8756 161.418 56.9556 161.816 56.952Z" fill="#455A64"/>
<path d="M176.28 61.7522C176.614 61.751 176.946 61.7023 177.266 61.6076C177.595 61.5107 177.902 61.3511 178.17 61.1375C178.447 60.9135 178.677 60.6371 178.848 60.3239C179.027 59.965 179.117 59.568 179.11 59.1668V58.3171C178.963 58.4777 178.803 58.6258 178.631 58.76C178.408 58.9383 178.165 59.09 177.908 59.212C177.592 59.3605 177.262 59.4756 176.922 59.5555C176.504 59.6501 176.076 59.6956 175.648 59.6911C174.933 59.7028 174.225 59.5513 173.577 59.2482C172.974 58.9636 172.435 58.5574 171.995 58.0549C171.551 57.5492 171.202 56.9673 170.965 56.3373C170.711 55.6878 170.567 55.0003 170.54 54.3033C170.54 54.0773 170.54 53.8061 170.54 53.5078C170.54 53.2094 170.54 52.9292 170.54 52.7032C170.567 52.0062 170.711 51.3187 170.965 50.6692C171.204 50.0402 171.553 49.4587 171.995 48.9516C172.432 48.4501 172.968 48.0439 173.568 47.7583C174.216 47.4552 174.924 47.3037 175.639 47.3154C176.067 47.3109 176.495 47.3564 176.913 47.451C177.253 47.5309 177.583 47.646 177.899 47.7945C178.156 47.9165 178.399 48.0682 178.622 48.2465C178.793 48.3807 178.954 48.5288 179.101 48.6895V48.1651C179.103 48.002 179.168 47.846 179.283 47.7297C179.398 47.6135 179.553 47.546 179.716 47.5414H181.46C181.624 47.548 181.778 47.6159 181.894 47.7315C182.01 47.847 182.077 48.0018 182.084 48.1651V58.9137C182.137 59.6817 182.025 60.4522 181.757 61.1739C181.489 61.8955 181.071 62.5519 180.529 63.0992C179.343 64.0914 177.824 64.5955 176.28 64.5095C175.545 64.5149 174.814 64.4082 174.111 64.1931C173.494 64.0148 172.911 63.7369 172.384 63.3704C171.922 63.06 171.523 62.6642 171.209 62.2042C170.932 61.8062 170.766 61.341 170.73 60.8573C170.722 60.7765 170.734 60.6952 170.764 60.6198C170.794 60.5444 170.841 60.4771 170.902 60.4234C171.02 60.3083 171.179 60.2435 171.345 60.2426H172.909C173.01 60.2404 173.111 60.2585 173.206 60.2958C173.301 60.333 173.387 60.3887 173.46 60.4595C173.614 60.6042 173.74 60.7398 173.849 60.8573C174.064 61.1341 174.343 61.3544 174.662 61.4991C175.177 61.6999 175.729 61.7863 176.28 61.7522ZM173.568 52.8659C173.523 53.2926 173.523 53.7229 173.568 54.1496C173.575 54.9552 173.9 55.7256 174.472 56.2921C175.005 56.7322 175.68 56.9636 176.371 56.943C177.062 56.9631 177.736 56.7246 178.26 56.274C178.53 56.0337 178.748 55.742 178.904 55.416C179.059 55.09 179.147 54.7363 179.164 54.3756C179.197 54.0755 179.213 53.7736 179.209 53.4716C179.212 53.1697 179.197 52.8678 179.164 52.5676C179.127 51.8626 178.816 51.2 178.298 50.7206C177.779 50.2412 177.095 49.9828 176.389 50.0003C175.698 49.9796 175.023 50.211 174.491 50.6511C174.195 50.9387 173.961 51.2832 173.802 51.6639C173.644 52.0446 173.564 52.4536 173.568 52.8659Z" fill="#455A64"/>
<path d="M184.66 53.5078C184.656 52.6836 184.79 51.8647 185.058 51.0851C185.31 50.3562 185.706 49.6858 186.224 49.1143C186.725 48.5498 187.342 48.0997 188.032 47.7945C188.768 47.4814 189.56 47.3201 190.36 47.3201C191.16 47.3201 191.951 47.4814 192.688 47.7945C193.369 48.0867 193.984 48.5142 194.496 49.0511C194.991 49.5932 195.378 50.2254 195.635 50.9133C195.899 51.6279 196.034 52.3841 196.032 53.1462V54.1767C196.035 54.2578 196.021 54.3386 195.99 54.4136C195.958 54.4885 195.911 54.5557 195.852 54.6107C195.797 54.6711 195.73 54.7193 195.655 54.752C195.58 54.7847 195.499 54.8012 195.418 54.8005H187.761C187.757 55.1151 187.832 55.4257 187.978 55.7045C188.12 55.9716 188.321 56.2033 188.565 56.3825C188.82 56.5725 189.109 56.7136 189.415 56.7983C189.736 56.8895 190.067 56.9352 190.4 56.9339C190.801 56.9447 191.2 56.8929 191.585 56.7803C191.856 56.6971 192.112 56.5721 192.344 56.4096C192.472 56.3095 192.612 56.2246 192.76 56.1565C192.898 56.1044 193.046 56.0799 193.194 56.0842H195.002C195.167 56.0851 195.326 56.1499 195.445 56.265C195.508 56.3186 195.557 56.3872 195.587 56.4646C195.617 56.542 195.627 56.6256 195.617 56.7079C195.563 57.0055 195.443 57.2869 195.264 57.5306C194.991 57.9134 194.655 58.2467 194.27 58.5159C193.763 58.8668 193.209 59.1437 192.624 59.3386C191.899 59.5786 191.138 59.6948 190.373 59.6821C189.574 59.6949 188.78 59.5442 188.041 59.2391C187.349 58.9571 186.731 58.5212 186.233 57.9645C185.716 57.4117 185.316 56.7598 185.058 56.048C184.781 55.2301 184.647 54.371 184.66 53.5078ZM190.283 50.0635C189.894 50.0522 189.506 50.1199 189.144 50.2624C188.85 50.3759 188.582 50.5481 188.357 50.7687C188.148 50.9624 187.979 51.196 187.86 51.4557C187.749 51.6834 187.676 51.9277 187.643 52.1789H192.823C192.79 51.9328 192.732 51.6906 192.651 51.4557C192.566 51.1984 192.424 50.9636 192.236 50.7687C192.026 50.5466 191.77 50.3737 191.485 50.2624C191.102 50.1163 190.693 50.0487 190.283 50.0635Z" fill="#455A64"/>
<path d="M214.827 58.8414C214.828 58.9229 214.813 59.0038 214.783 59.0794C214.753 59.155 214.708 59.2239 214.65 59.2819C214.593 59.3399 214.525 59.386 214.45 59.4175C214.375 59.4489 214.294 59.4651 214.212 59.4651H212.441C212.36 59.4659 212.28 59.4503 212.205 59.4193C212.13 59.3882 212.063 59.3423 212.007 59.2843C211.946 59.2274 211.898 59.1587 211.866 59.0825C211.833 59.0064 211.816 58.9243 211.817 58.8414V53.0196C211.859 52.2357 211.632 51.4609 211.175 50.8229C210.936 50.5388 210.632 50.3159 210.289 50.1728C209.947 50.0297 209.575 49.9705 209.204 50.0003C208.845 49.9827 208.486 50.0478 208.155 50.1904C207.825 50.333 207.531 50.5493 207.297 50.8229C206.803 51.4453 206.552 52.2261 206.592 53.0196V58.8414C206.594 58.9237 206.579 59.0055 206.548 59.0818C206.517 59.158 206.47 59.227 206.411 59.2843C206.354 59.3419 206.287 59.3875 206.212 59.4185C206.138 59.4496 206.058 59.4654 205.977 59.4651H204.305C204.224 59.4654 204.144 59.4496 204.069 59.4185C203.995 59.3875 203.927 59.3419 203.871 59.2843C203.812 59.227 203.765 59.158 203.734 59.0818C203.703 59.0055 203.688 58.9237 203.69 58.8414V48.1651C203.687 48.084 203.701 48.0032 203.733 47.9283C203.764 47.8534 203.811 47.7861 203.871 47.7312C203.925 47.6707 203.993 47.6226 204.067 47.5899C204.142 47.5571 204.223 47.5406 204.305 47.5414H206.049C206.131 47.5406 206.212 47.5571 206.287 47.5899C206.361 47.6226 206.428 47.6707 206.483 47.7312C206.543 47.7861 206.59 47.8534 206.621 47.9283C206.653 48.0032 206.667 48.084 206.664 48.1651V48.6895C207.074 48.286 207.547 47.9531 208.065 47.7041C208.66 47.4303 209.309 47.2973 209.964 47.3154C210.766 47.2889 211.565 47.437 212.305 47.7493C212.895 48.011 213.412 48.4111 213.815 48.9155C214.206 49.4193 214.484 50.0022 214.628 50.624C214.793 51.2955 214.875 51.9847 214.872 52.6761L214.827 58.8414Z" fill="#455A64"/>
<path d="M223.126 47.3154C223.903 47.3028 224.675 47.4346 225.404 47.7041C226.056 47.9611 226.654 48.3382 227.167 48.816C227.662 49.2728 228.067 49.8187 228.36 50.4251C228.661 51.0414 228.836 51.7113 228.875 52.3958C228.886 52.5704 228.886 52.7456 228.875 52.9202V54.1948C228.886 54.3664 228.886 54.5385 228.875 54.7101C228.818 55.3929 228.641 56.0601 228.351 56.6808C228.066 57.2847 227.663 57.8256 227.167 58.2718C226.65 58.734 226.053 59.0957 225.404 59.3386C223.94 59.8484 222.347 59.8484 220.884 59.3386C220.218 59.102 219.605 58.7399 219.076 58.2718C218.582 57.8252 218.182 57.2843 217.901 56.6808C217.608 56.0606 217.427 55.3934 217.367 54.7101C217.367 54.5715 217.367 54.3997 217.367 54.1948C217.367 53.9869 217.367 53.779 217.367 53.562C217.367 53.345 217.367 53.1371 217.367 52.9202C217.367 52.7032 217.367 52.5314 217.367 52.3958C217.415 51.7127 217.59 51.0444 217.882 50.4251C218.176 49.8187 218.581 49.2728 219.076 48.816C219.604 48.3453 220.218 47.9801 220.884 47.7403C221.599 47.4628 222.359 47.3188 223.126 47.3154ZM225.901 52.4682C225.87 52.0579 225.756 51.6582 225.566 51.293C225.406 51.0013 225.184 50.7483 224.916 50.5517C224.663 50.3654 224.373 50.2359 224.066 50.172C223.769 50.1025 223.466 50.0661 223.162 50.0635C222.857 50.0656 222.554 50.102 222.258 50.172C221.951 50.2359 221.661 50.3654 221.408 50.5517C221.135 50.7433 220.912 50.9974 220.757 51.293C220.564 51.6565 220.45 52.0571 220.423 52.4682C220.423 52.5947 220.423 52.7484 220.423 52.9292C220.423 53.11 220.423 53.3089 220.423 53.5078C220.423 53.7066 220.423 53.8965 220.423 54.0863C220.415 54.2369 220.415 54.3878 220.423 54.5383C220.448 54.9496 220.563 55.3504 220.757 55.7135C220.914 56.0099 221.137 56.2665 221.408 56.4638C221.665 56.643 221.953 56.7718 222.258 56.8435C222.555 56.9064 222.858 56.9397 223.162 56.943C223.466 56.9393 223.768 56.906 224.066 56.8435C224.371 56.7718 224.659 56.643 224.916 56.4638C225.182 56.2616 225.404 56.0061 225.566 55.7135C225.757 55.3488 225.871 54.9488 225.901 54.5383C225.901 54.4299 225.901 54.2762 225.901 54.0863V52.9292C225.919 52.7484 225.91 52.5947 225.901 52.432V52.4682Z" fill="#455A64"/>
<path d="M235.384 55.144C235.363 55.5578 235.499 55.9643 235.763 56.283C235.957 56.446 236.182 56.5678 236.425 56.6408C236.667 56.7139 236.922 56.7367 237.174 56.7079H238.575C238.656 56.7066 238.736 56.7219 238.811 56.753C238.885 56.7842 238.953 56.8303 239.009 56.8887C239.067 56.945 239.113 57.0125 239.144 57.0871C239.175 57.1617 239.19 57.2418 239.19 57.3226V58.8323C239.191 58.9138 239.176 58.9947 239.145 59.0703C239.115 59.146 239.07 59.2148 239.013 59.2729C238.956 59.3309 238.887 59.377 238.812 59.4084C238.737 59.4399 238.656 59.4561 238.575 59.4561H236.848C235.653 59.535 234.471 59.1606 233.54 58.4074C233.127 57.9913 232.81 57.4903 232.61 56.9393C232.41 56.3882 232.332 55.8003 232.382 55.2163V50.2986H230.864C230.701 50.2939 230.546 50.2264 230.431 50.1102C230.317 49.994 230.251 49.838 230.249 49.6748V48.1651C230.251 48.0019 230.317 47.846 230.431 47.7297C230.546 47.6135 230.701 47.546 230.864 47.5414H232.382V43.8078C232.382 43.6448 232.447 43.4885 232.563 43.3732C232.678 43.2579 232.834 43.1931 232.997 43.1931H234.742C234.823 43.1918 234.903 43.2071 234.978 43.2382C235.052 43.2694 235.12 43.3155 235.176 43.3739C235.234 43.4302 235.28 43.4977 235.311 43.5723C235.342 43.6469 235.357 43.727 235.357 43.8078V47.5414H238.313C238.476 47.548 238.631 47.6159 238.746 47.7315C238.862 47.847 238.93 48.0018 238.936 48.1651V49.72C238.93 49.8833 238.862 50.0381 238.746 50.1537C238.631 50.2692 238.476 50.3371 238.313 50.3438H235.357L235.384 55.144Z" fill="#455A64"/>
<path d="M250.409 47.5414H253.591C253.674 47.541 253.756 47.5577 253.832 47.5903C253.908 47.623 253.977 47.6709 254.034 47.7312C254.092 47.7875 254.137 47.855 254.169 47.9296C254.2 48.0042 254.215 48.0843 254.214 48.1651V49.72C254.215 49.8008 254.2 49.8809 254.169 49.9555C254.137 50.0301 254.092 50.0976 254.034 50.1539C253.977 50.2142 253.908 50.2621 253.832 50.2948C253.756 50.3275 253.674 50.3441 253.591 50.3438H250.409V58.8866C250.41 58.9681 250.395 59.049 250.364 59.1246C250.334 59.2002 250.289 59.2691 250.232 59.3271C250.175 59.3851 250.106 59.4312 250.031 59.4627C249.956 59.4941 249.875 59.5103 249.794 59.5103H248.049C247.968 59.5111 247.888 59.4955 247.814 59.4645C247.739 59.4334 247.672 59.3875 247.615 59.3295C247.555 59.2726 247.507 59.2039 247.474 59.1277C247.442 59.0515 247.425 58.9695 247.425 58.8866V50.2986H245.889C245.807 50.2999 245.726 50.2837 245.651 50.2509C245.576 50.2181 245.509 50.1697 245.455 50.1087C245.395 50.0538 245.348 49.9866 245.317 49.9116C245.285 49.8367 245.271 49.7559 245.274 49.6748V48.1651C245.271 48.084 245.285 48.0032 245.317 47.9283C245.348 47.8534 245.395 47.7861 245.455 47.7312C245.509 47.6703 245.576 47.6218 245.651 47.589C245.726 47.5563 245.807 47.54 245.889 47.5414H247.398V46.5108C247.381 45.8745 247.491 45.2411 247.724 44.6486C247.913 44.1596 248.224 43.7272 248.628 43.392C249.053 43.0639 249.543 42.8298 250.065 42.705C250.676 42.5646 251.301 42.4978 251.927 42.5061H253.79C253.87 42.5047 253.951 42.5201 254.025 42.5512C254.1 42.5823 254.167 42.6285 254.223 42.6869C254.281 42.7432 254.327 42.8107 254.358 42.8853C254.389 42.9599 254.405 43.04 254.404 43.1208V44.6305C254.405 44.712 254.39 44.7929 254.36 44.8685C254.33 44.9441 254.285 45.013 254.227 45.071C254.17 45.1291 254.102 45.1751 254.027 45.2066C253.952 45.2381 253.871 45.2543 253.79 45.2542H252.217C251.753 45.222 251.29 45.329 250.888 45.5616C250.718 45.7048 250.587 45.8882 250.506 46.095C250.426 46.3019 250.398 46.5257 250.427 46.7458L250.409 47.5414Z" fill="#455A64"/>
<path d="M261.257 47.3154C262.033 47.3028 262.806 47.4346 263.535 47.7041C264.174 47.965 264.759 48.342 265.261 48.816C265.756 49.2728 266.161 49.8187 266.455 50.4251C266.755 51.0414 266.93 51.7113 266.97 52.3958C266.981 52.5704 266.981 52.7456 266.97 52.9202V54.1948C266.981 54.3664 266.981 54.5385 266.97 54.7101C266.913 55.3929 266.736 56.0601 266.445 56.6808C266.161 57.2847 265.758 57.8256 265.261 58.2718C264.745 58.734 264.147 59.0957 263.498 59.3386C262.777 59.5822 262.017 59.6925 261.257 59.664C260.477 59.6765 259.701 59.5447 258.969 59.2753C258.321 59.0325 257.723 58.6707 257.207 58.2086C256.713 57.762 256.313 57.221 256.031 56.6175C255.734 55.9989 255.553 55.3309 255.498 54.6468C255.498 54.5112 255.498 54.3395 255.498 54.1315C255.498 53.9236 255.498 53.7157 255.498 53.4987C255.498 53.2818 255.498 53.0739 255.498 52.8569C255.498 52.6399 255.498 52.4682 255.498 52.3326C255.537 51.648 255.713 50.9781 256.013 50.3618C256.302 49.7809 256.695 49.2571 257.17 48.816C257.686 48.3512 258.284 47.9864 258.933 47.7403C259.674 47.4541 260.462 47.3099 261.257 47.3154ZM263.969 52.432C263.94 52.0224 263.829 51.6227 263.643 51.2568C263.483 50.9626 263.257 50.709 262.983 50.5155C262.734 50.3294 262.447 50.1999 262.142 50.1358C261.846 50.0663 261.543 50.03 261.238 50.0274C260.934 50.029 260.631 50.0654 260.334 50.1358C260.027 50.1997 259.737 50.3292 259.485 50.5155C259.212 50.7071 258.988 50.9613 258.834 51.2568C258.64 51.6204 258.526 52.021 258.499 52.432C258.499 52.5586 258.499 52.7122 258.499 52.893C258.499 53.0738 258.499 53.2727 258.499 53.4716C258.499 53.6705 258.499 53.8603 258.499 54.0502C258.491 54.2007 258.491 54.3516 258.499 54.5022C258.525 54.9134 258.639 55.3142 258.834 55.6774C258.991 55.9737 259.214 56.2303 259.485 56.4277C259.741 56.6068 260.03 56.7356 260.334 56.8074C260.632 56.8708 260.935 56.9041 261.238 56.9068C261.542 56.9031 261.845 56.8698 262.142 56.8074C262.444 56.7354 262.73 56.6065 262.983 56.4277C263.255 56.2284 263.48 55.9724 263.643 55.6774C263.831 55.3119 263.941 54.912 263.969 54.5022C263.98 54.3517 263.98 54.2006 263.969 54.0502V52.9292C263.981 52.7637 263.981 52.5975 263.969 52.432Z" fill="#455A64"/>
<path d="M269.491 48.1651C269.494 48.002 269.559 47.846 269.673 47.7297C269.788 47.6135 269.943 47.546 270.106 47.5414H271.851C272.014 47.548 272.169 47.6159 272.284 47.7315C272.4 47.847 272.468 48.0018 272.475 48.1651V53.9869C272.435 54.7614 272.637 55.529 273.053 56.1836C273.278 56.4711 273.571 56.6977 273.906 56.843C274.24 56.9883 274.606 57.0475 274.97 57.0153C275.323 57.0353 275.675 56.9702 275.998 56.8255C276.32 56.6807 276.603 56.4606 276.823 56.1836C277.28 55.5456 277.507 54.7708 277.465 53.9869V48.1651C277.471 48.0018 277.539 47.847 277.655 47.7315C277.77 47.6159 277.925 47.548 278.088 47.5414H279.824C279.907 47.541 279.989 47.5577 280.065 47.5903C280.141 47.623 280.21 47.6709 280.267 47.7312C280.325 47.7875 280.371 47.855 280.402 47.9296C280.433 48.0042 280.449 48.0843 280.448 48.1651V58.8414C280.449 58.9236 280.434 59.0053 280.403 59.0815C280.372 59.1577 280.326 59.227 280.268 59.2852C280.21 59.3433 280.14 59.3892 280.064 59.4201C279.988 59.4511 279.906 59.4664 279.824 59.4651H278.088C278.008 59.466 277.927 59.4503 277.853 59.4193C277.778 59.3882 277.711 59.3423 277.655 59.2843C277.594 59.2274 277.546 59.1587 277.514 59.0826C277.481 59.0064 277.464 58.9243 277.465 58.8414V58.3171C277.076 58.6783 276.637 58.9827 276.163 59.2211C275.583 59.5209 274.935 59.6672 274.283 59.6459C273.489 59.6725 272.699 59.5244 271.968 59.212C271.39 58.952 270.887 58.551 270.504 58.0459C270.125 57.5378 269.857 56.9557 269.717 56.3373C269.563 55.6643 269.487 54.9757 269.491 54.2852V48.1651Z" fill="#455A64"/>
<path d="M294.794 58.8414C294.795 58.9229 294.78 59.0038 294.75 59.0794C294.72 59.155 294.675 59.2239 294.617 59.2819C294.56 59.3399 294.492 59.386 294.417 59.4175C294.342 59.4489 294.261 59.4651 294.179 59.4651H292.435C292.354 59.4659 292.274 59.4503 292.199 59.4193C292.125 59.3882 292.057 59.3423 292.001 59.2843C291.941 59.2274 291.893 59.1587 291.86 59.0825C291.827 59.0064 291.811 58.9243 291.811 58.8414V53.0196C291.853 52.2357 291.627 51.4609 291.169 50.8229C290.93 50.5388 290.626 50.3159 290.283 50.1728C289.941 50.0297 289.569 49.9705 289.198 50.0003C288.839 49.9827 288.48 50.0478 288.149 50.1904C287.819 50.333 287.525 50.5493 287.291 50.8229C286.797 51.4453 286.546 52.2261 286.586 53.0196V58.8414C286.588 58.9237 286.573 59.0055 286.542 59.0818C286.511 59.158 286.464 59.227 286.405 59.2843C286.348 59.3419 286.281 59.3875 286.206 59.4185C286.132 59.4496 286.052 59.4654 285.971 59.4651H284.226C284.146 59.4654 284.066 59.4496 283.991 59.4185C283.917 59.3875 283.849 59.3419 283.793 59.2843C283.733 59.227 283.687 59.158 283.656 59.0818C283.625 59.0055 283.61 58.9237 283.612 58.8414V48.1651C283.609 48.084 283.623 48.0032 283.654 47.9283C283.686 47.8534 283.733 47.7861 283.793 47.7312C283.847 47.6707 283.914 47.6226 283.989 47.5899C284.064 47.5571 284.145 47.5406 284.226 47.5414H285.971C286.053 47.5406 286.134 47.5571 286.208 47.5899C286.283 47.6226 286.35 47.6707 286.405 47.7312C286.465 47.7861 286.512 47.8534 286.543 47.9283C286.574 48.0032 286.589 48.084 286.586 48.1651V48.6895C286.995 48.286 287.469 47.9531 287.987 47.7041C288.582 47.4303 289.231 47.2973 289.885 47.3154C290.688 47.2889 291.487 47.437 292.227 47.7493C292.816 48.011 293.334 48.4111 293.737 48.9155C294.128 49.4193 294.406 50.0022 294.55 50.624C294.715 51.2955 294.797 51.9847 294.794 52.6761V58.8414Z" fill="#455A64"/>
<path d="M302.424 47.3154C302.853 47.31 303.281 47.3555 303.699 47.451C304.039 47.5308 304.369 47.646 304.684 47.7945C304.942 47.9165 305.185 48.0682 305.408 48.2465C305.581 48.3783 305.742 48.5266 305.887 48.6894V43.8078C305.887 43.7263 305.903 43.6457 305.934 43.5705C305.966 43.4953 306.012 43.4271 306.07 43.3699C306.128 43.3127 306.197 43.2677 306.273 43.2373C306.348 43.2069 306.429 43.1919 306.511 43.1931H308.264C308.345 43.19 308.426 43.2046 308.501 43.2358C308.576 43.2671 308.643 43.3142 308.698 43.3739C308.759 43.4284 308.808 43.4953 308.84 43.5702C308.873 43.6451 308.889 43.7261 308.888 43.8078V58.8414C308.888 58.9243 308.872 59.0063 308.839 59.0825C308.806 59.1587 308.759 59.2274 308.698 59.2843C308.642 59.3423 308.574 59.3882 308.5 59.4193C308.425 59.4503 308.345 59.4659 308.264 59.4651H306.529C306.446 59.4663 306.365 59.451 306.288 59.4201C306.212 59.3892 306.143 59.3433 306.085 59.2851C306.027 59.227 305.981 59.1577 305.95 59.0815C305.919 59.0053 305.904 58.9236 305.905 58.8414V58.317C305.76 58.4798 305.599 58.6282 305.426 58.76C305.203 58.9383 304.96 59.09 304.703 59.212C304.387 59.3605 304.057 59.4756 303.717 59.5555C303.299 59.6509 302.871 59.6965 302.443 59.6911C301.728 59.7028 301.02 59.5513 300.372 59.2482C299.768 58.9636 299.23 58.5574 298.79 58.0549C298.349 57.547 298 56.9656 297.76 56.3373C297.505 55.6878 297.362 55.0003 297.335 54.3033C297.335 54.0773 297.335 53.8061 297.335 53.5078C297.335 53.2094 297.335 52.9292 297.335 52.7032C297.362 52.0062 297.505 51.3187 297.76 50.6692C298.002 50.0418 298.351 49.4608 298.79 48.9516C299.23 48.4491 299.768 48.0429 300.372 47.7583C301.014 47.4579 301.716 47.3064 302.424 47.3154ZM300.291 52.8659C300.246 53.2926 300.246 53.7229 300.291 54.1496C300.301 54.9544 300.626 55.7233 301.195 56.2921C301.729 56.7308 302.403 56.9619 303.093 56.943C303.787 56.9619 304.463 56.7236 304.992 56.274C305.261 56.0337 305.48 55.742 305.635 55.416C305.791 55.09 305.879 54.7363 305.896 54.3756C305.929 54.0755 305.944 53.7736 305.941 53.4716C305.944 53.1696 305.929 52.8678 305.896 52.5676C305.858 51.8626 305.548 51.2 305.029 50.7206C304.511 50.2412 303.826 49.9828 303.121 50.0002C302.43 49.9813 301.756 50.2124 301.222 50.6511C300.927 50.9392 300.692 51.2836 300.532 51.6641C300.372 52.0445 300.29 52.4532 300.291 52.8659Z" fill="#455A64"/>
<path d="M177.582 82.0471C177.657 82.0463 177.73 82.0611 177.799 82.0907C177.868 82.1203 177.929 82.1639 177.98 82.2188C178.032 82.2705 178.074 82.3325 178.102 82.4009C178.13 82.4693 178.144 82.5427 178.142 82.6166V84.8404C178.144 84.9143 178.13 84.9877 178.102 85.0561C178.074 85.1245 178.032 85.1865 177.98 85.2382C177.929 85.293 177.868 85.3367 177.799 85.3663C177.73 85.3958 177.657 85.4107 177.582 85.4099H167.638C167.563 85.4113 167.489 85.3967 167.42 85.3671C167.352 85.3374 167.29 85.2935 167.24 85.2382C167.186 85.1869 167.143 85.1252 167.114 85.0569C167.084 84.9885 167.069 84.9149 167.068 84.8404V71.2804C167.069 71.2059 167.084 71.1323 167.114 71.064C167.143 70.9956 167.186 70.9339 167.24 70.8827C167.29 70.8273 167.352 70.7834 167.42 70.7538C167.489 70.7241 167.563 70.7095 167.638 70.7109H177.428C177.578 70.7154 177.72 70.7769 177.826 70.8827C177.932 70.9886 177.993 71.1308 177.998 71.2804V73.4952C177.999 73.5712 177.984 73.6465 177.954 73.7165C177.925 73.7866 177.881 73.8497 177.826 73.902C177.774 73.9548 177.712 73.9965 177.644 74.0244C177.575 74.0524 177.502 74.0661 177.428 74.0647H170.956V76.3338H176.967C177.042 76.3324 177.116 76.347 177.185 76.3766C177.253 76.4063 177.315 76.4502 177.365 76.5055C177.419 76.5568 177.462 76.6185 177.492 76.6868C177.521 76.7552 177.536 76.8288 177.537 76.9033V79.1271C177.536 79.2016 177.521 79.2752 177.492 79.3436C177.462 79.4119 177.419 79.4736 177.365 79.5249C177.315 79.5802 177.253 79.6242 177.185 79.6538C177.116 79.6834 177.042 79.698 176.967 79.6967H170.956V82.0471H177.582Z" fill="#ECBD2F"/>
<path d="M186.821 70.7019C187.656 70.6907 188.489 70.791 189.298 71.0002C189.971 71.1792 190.603 71.4861 191.16 71.9042C191.671 72.3016 192.075 72.8206 192.335 73.4139C192.619 74.0855 192.757 74.8094 192.742 75.5383C192.777 76.4561 192.552 77.3652 192.091 78.1599C191.657 78.8532 191.028 79.4034 190.283 79.7419L192.887 84.741C192.926 84.813 192.948 84.8937 192.95 84.976C192.95 85.0983 192.901 85.2156 192.815 85.302C192.728 85.3885 192.611 85.4371 192.489 85.4371H189.632C189.525 85.448 189.417 85.4367 189.314 85.4041C189.211 85.3714 189.117 85.318 189.036 85.2472C188.923 85.134 188.825 85.0063 188.746 84.8675L186.414 80.3475H184.416V84.8675C184.417 84.9414 184.404 85.0148 184.376 85.0832C184.348 85.1516 184.306 85.2136 184.253 85.2653C184.203 85.3202 184.141 85.3638 184.073 85.3934C184.004 85.423 183.93 85.4379 183.856 85.4371H181.144C181.069 85.4379 180.995 85.423 180.926 85.3934C180.858 85.3638 180.796 85.3202 180.746 85.2653C180.693 85.2136 180.651 85.1516 180.623 85.0832C180.595 85.0148 180.582 84.9414 180.583 84.8675V71.3075C180.582 71.2336 180.595 71.1603 180.623 71.0919C180.651 71.0235 180.693 70.9615 180.746 70.9098C180.796 70.8549 180.858 70.8113 180.926 70.7817C180.995 70.7521 181.069 70.7372 181.144 70.738L186.821 70.7019ZM184.443 77.0299H186.821C187.33 77.0501 187.835 76.9347 188.285 76.6954C188.483 76.5639 188.641 76.3805 188.741 76.1652C188.842 75.9499 188.881 75.7111 188.855 75.475C188.881 75.2401 188.842 75.0024 188.742 74.7885C188.641 74.5746 188.483 74.3929 188.285 74.2636C187.835 74.0243 187.33 73.9089 186.821 73.9291H184.416L184.443 77.0299Z" fill="#ECBD2F"/>
<path d="M201.421 70.7019C202.256 70.6907 203.089 70.791 203.898 71.0002C204.571 71.1792 205.203 71.4861 205.76 71.9042C206.274 72.2991 206.678 72.8188 206.935 73.4139C207.219 74.0855 207.357 74.8094 207.342 75.5383C207.377 76.4561 207.152 77.3652 206.691 78.1599C206.257 78.8532 205.628 79.4034 204.883 79.7419L207.487 84.741C207.527 84.813 207.548 84.8937 207.55 84.976C207.55 85.0983 207.501 85.2156 207.415 85.302C207.328 85.3885 207.211 85.4371 207.089 85.4371H204.232C204.125 85.448 204.017 85.4367 203.914 85.4041C203.812 85.3714 203.717 85.318 203.636 85.2472C203.523 85.134 203.426 85.0063 203.346 84.8675L201.014 80.3475H199.088V84.8675C199.088 84.942 199.073 85.0156 199.043 85.084C199.014 85.1524 198.971 85.214 198.917 85.2653C198.866 85.3202 198.805 85.3638 198.736 85.3934C198.668 85.423 198.594 85.4379 198.519 85.4371H195.762C195.687 85.4379 195.613 85.423 195.545 85.3934C195.476 85.3638 195.415 85.3202 195.364 85.2653C195.311 85.2136 195.27 85.1516 195.242 85.0832C195.214 85.0148 195.2 84.9414 195.201 84.8675V71.3075C195.2 71.2336 195.214 71.1603 195.242 71.0919C195.27 71.0235 195.311 70.9615 195.364 70.9098C195.415 70.8549 195.476 70.8113 195.545 70.7817C195.613 70.7521 195.687 70.7372 195.762 70.738L201.421 70.7019ZM199.052 77.0299H201.421C201.93 77.0501 202.435 76.9347 202.885 76.6954C203.083 76.5639 203.241 76.3805 203.342 76.1652C203.442 75.9499 203.481 75.7111 203.455 75.475C203.482 75.2401 203.442 75.0024 203.342 74.7885C203.241 74.5746 203.083 74.3929 202.885 74.2636C202.435 74.0243 201.93 73.9089 201.421 73.9291H199.052V77.0299Z" fill="#ECBD2F"/>
<path d="M209.276 76.1891C209.316 75.4262 209.49 74.6763 209.792 73.9743C210.086 73.287 210.523 72.6706 211.075 72.1663C211.66 71.6299 212.345 71.2151 213.091 70.9459C214.864 70.3432 216.787 70.3432 218.56 70.9459C219.306 71.2172 219.99 71.6318 220.576 72.1663C221.126 72.6709 221.56 73.2875 221.851 73.9743C222.161 74.6735 222.336 75.425 222.366 76.1891C222.366 76.7858 222.411 77.4186 222.411 78.0785C222.411 78.7384 222.411 79.3531 222.366 79.8865C222.335 80.6534 222.16 81.4077 221.851 82.1103C221.553 82.7929 221.119 83.4079 220.576 83.9183C219.987 84.4551 219.295 84.8672 218.542 85.1297C216.767 85.7205 214.848 85.7205 213.073 85.1297C212.326 84.867 211.64 84.4549 211.057 83.9183C210.512 83.4083 210.075 82.7933 209.774 82.1103C209.473 81.4049 209.299 80.6522 209.258 79.8865C209.258 79.317 209.258 78.7022 209.258 78.0785C209.258 77.4547 209.249 76.7858 209.276 76.1891ZM218.497 79.8051C218.497 79.552 218.497 79.2718 218.542 78.9644C218.588 78.657 218.542 78.3406 218.542 78.0152C218.542 77.6898 218.542 77.3824 218.542 77.1112C218.542 76.84 218.542 76.5417 218.497 76.2976C218.474 75.969 218.401 75.6458 218.28 75.3394C218.167 75.0509 217.994 74.7892 217.774 74.571C217.544 74.3463 217.27 74.171 216.969 74.0557C216.605 73.9225 216.219 73.8581 215.83 73.8658C215.445 73.8571 215.062 73.9215 214.7 74.0557C214.396 74.1687 214.119 74.3443 213.887 74.571C213.669 74.7915 213.497 75.0526 213.381 75.3394C213.26 75.6458 213.187 75.969 213.164 76.2976C213.164 76.5387 213.145 76.8099 213.109 77.1112C213.109 77.4095 213.109 77.7259 213.109 78.0152C213.109 78.3045 213.109 78.657 213.109 78.9644C213.109 79.2718 213.109 79.552 213.164 79.8051C213.198 80.4524 213.453 81.0683 213.887 81.5498C214.144 81.7948 214.45 81.9826 214.785 82.101C215.12 82.2194 215.476 82.2657 215.83 82.2369C216.183 82.2667 216.538 82.2209 216.872 82.1024C217.206 81.9839 217.51 81.7955 217.765 81.5498C218.191 81.0694 218.448 80.4631 218.497 79.8232V79.8051Z" fill="#ECBD2F"/>
<path d="M231.108 70.7019C231.943 70.6914 232.776 70.7917 233.585 71.0002C234.256 71.1783 234.885 71.4854 235.438 71.9042C235.952 72.3011 236.359 72.82 236.622 73.4139C236.906 74.0855 237.045 74.8094 237.029 75.5383C237.065 76.4561 236.839 77.3652 236.378 78.1599C235.933 78.8611 235.288 79.4123 234.525 79.7419L237.129 84.741C237.171 84.8126 237.195 84.8931 237.201 84.976C237.2 85.0372 237.187 85.0976 237.162 85.1536C237.137 85.2095 237.101 85.2598 237.056 85.3015C237.014 85.3451 236.964 85.3797 236.908 85.403C236.852 85.4264 236.791 85.4379 236.731 85.4371H233.874C233.767 85.448 233.659 85.4367 233.556 85.4041C233.454 85.3714 233.359 85.318 233.278 85.2472C233.167 85.1342 233.073 85.0064 232.997 84.8675L230.665 80.3475H228.712V84.8675C228.708 85.0171 228.646 85.1594 228.541 85.2652C228.435 85.3711 228.292 85.4325 228.143 85.4371H225.431C225.281 85.4325 225.139 85.3711 225.033 85.2652C224.927 85.1594 224.866 85.0171 224.861 84.8675V71.3075C224.866 71.1579 224.927 71.0157 225.033 70.9098C225.139 70.804 225.281 70.7426 225.431 70.738L231.108 70.7019ZM228.73 77.0299H231.108C231.614 77.0503 232.117 76.9348 232.563 76.6954C232.764 76.5666 232.925 76.3839 233.028 76.1681C233.13 75.9523 233.17 75.7122 233.142 75.475C233.169 75.2391 233.129 75.0005 233.027 74.7863C232.924 74.5721 232.764 74.391 232.563 74.2636C232.117 74.0242 231.614 73.9087 231.108 73.9291H228.712L228.73 77.0299Z" fill="#ECBD2F"/>
<path d="M250.833 85.4099C250.757 85.4109 250.682 85.3961 250.612 85.3665C250.542 85.337 250.479 85.2933 250.427 85.2382C250.374 85.1865 250.332 85.1245 250.304 85.0561C250.276 84.9877 250.262 84.9143 250.264 84.8404V82.6979H243.647C243.573 82.6993 243.499 82.6856 243.431 82.6577C243.362 82.6297 243.301 82.588 243.249 82.5352C243.194 82.4829 243.15 82.4198 243.12 82.3498C243.091 82.2798 243.076 82.2044 243.077 82.1284V79.9046C243.066 79.5817 243.161 79.264 243.348 79.0006L249.631 71.0815C249.725 70.9586 249.842 70.8544 249.975 70.7742C250.113 70.7221 250.261 70.6975 250.408 70.7019H253.582C253.656 70.7005 253.73 70.7151 253.799 70.7447C253.868 70.7743 253.929 70.8183 253.979 70.8736C254.033 70.9249 254.076 70.9866 254.106 71.0549C254.135 71.1233 254.151 71.1969 254.151 71.2714V79.3351H255.959C256.109 79.3377 256.252 79.3994 256.357 79.5068C256.41 79.5585 256.451 79.6205 256.479 79.6889C256.507 79.7573 256.521 79.8307 256.52 79.9046V82.1284C256.521 82.2801 256.462 82.4262 256.357 82.5352C256.304 82.5872 256.242 82.6283 256.174 82.6562C256.106 82.6841 256.033 82.6983 255.959 82.6979H254.151V84.8404C254.151 84.9149 254.135 84.9885 254.106 85.0569C254.076 85.1252 254.033 85.1869 253.979 85.2382C253.929 85.2935 253.868 85.3374 253.799 85.3671C253.73 85.3967 253.656 85.4113 253.582 85.4099H250.833ZM250.408 79.3351V75.475L247.344 79.3351H250.408Z" fill="#ECBD2F"/>
<path d="M264.42 70.512C265.346 70.4908 266.266 70.6473 267.132 70.9731C267.839 71.2498 268.479 71.6717 269.013 72.2115C269.507 72.7292 269.885 73.3453 270.125 74.0195C270.37 74.7219 270.516 75.4553 270.559 76.1982C270.559 76.7948 270.559 77.4276 270.559 78.0875C270.559 78.7474 270.559 79.3622 270.559 79.8955C270.516 80.6384 270.37 81.3718 270.125 82.0742C269.889 82.7503 269.51 83.3673 269.013 83.8822C268.479 84.422 267.839 84.8439 267.132 85.1207C265.377 85.7353 263.464 85.7353 261.708 85.1207C261.002 84.8439 260.361 84.422 259.828 83.8822C259.331 83.3673 258.951 82.7503 258.716 82.0742C258.471 81.3718 258.324 80.6384 258.282 79.8955C258.282 79.326 258.282 78.7113 258.282 78.0875C258.282 77.4638 258.282 76.7948 258.282 76.1982C258.324 75.4553 258.471 74.7219 258.716 74.0195C258.955 73.3453 259.334 72.7292 259.828 72.2115C260.361 71.6717 261.002 71.2498 261.708 70.9731C262.575 70.6473 263.495 70.4908 264.42 70.512ZM266.68 79.8232C266.735 78.6299 266.735 77.4547 266.68 76.2886C266.657 75.9647 266.603 75.6438 266.518 75.3303C266.451 75.0521 266.328 74.7906 266.156 74.5619C265.974 74.3386 265.742 74.162 265.478 74.0467C265.146 73.9097 264.789 73.845 264.429 73.8568C264.07 73.8458 263.713 73.9105 263.381 74.0467C263.117 74.162 262.885 74.3386 262.703 74.5619C262.531 74.7921 262.406 75.0529 262.332 75.3303C262.242 75.6422 262.19 75.964 262.178 76.2886C262.115 77.4659 262.115 78.6458 262.178 79.8232C262.193 80.1492 262.239 80.473 262.314 80.7905C262.389 81.0692 262.518 81.3303 262.694 81.5589C262.879 81.78 263.115 81.9536 263.381 82.0651C263.713 82.2013 264.07 82.266 264.429 82.255C264.789 82.2668 265.146 82.2021 265.478 82.0651C265.744 81.9536 265.98 81.78 266.165 81.5589C266.341 81.3303 266.47 81.0692 266.545 80.7905C266.62 80.473 266.666 80.1492 266.68 79.8232Z" fill="#ECBD2F"/>
<path d="M280.05 85.4099C279.901 85.4054 279.759 85.3439 279.653 85.2381C279.547 85.1322 279.485 84.99 279.481 84.8404V82.6979H272.864C272.79 82.6993 272.716 82.6856 272.648 82.6576C272.58 82.6297 272.518 82.588 272.466 82.5352C272.358 82.4271 272.296 82.2812 272.294 82.1284V79.9046C272.281 79.58 272.38 79.261 272.574 79.0006L278.848 71.0815C278.943 70.956 279.063 70.8513 279.201 70.7742C279.336 70.7212 279.48 70.6965 279.626 70.7018H282.799C282.948 70.7064 283.09 70.7678 283.196 70.8737C283.302 70.9795 283.364 71.1218 283.368 71.2714V79.335H285.176C285.326 79.3396 285.468 79.401 285.574 79.5069C285.68 79.6127 285.741 79.755 285.746 79.9046V82.1284C285.743 82.2812 285.682 82.4271 285.574 82.5352C285.522 82.588 285.46 82.6297 285.392 82.6576C285.323 82.6856 285.25 82.6993 285.176 82.6979H283.368V84.8404C283.364 84.99 283.302 85.1322 283.196 85.2381C283.09 85.3439 282.948 85.4054 282.799 85.4099H280.05ZM279.589 79.335V75.475L276.525 79.335H279.589Z" fill="#ECBD2F"/>
</svg>
