<svg width="61" height="61" viewBox="0 0 61 61" fill="none" xmlns="http://www.w3.org/2000/svg">
<g clip-path="url(#clip0)">
<path d="M61 20.9689C61 32.5496 51.612 41.9375 40.0312 41.9375C38.6945 41.9375 37.3875 41.811 36.1202 41.5719L33.2594 44.7903C32.9912 45.0921 32.662 45.3337 32.2936 45.4991C31.9253 45.6645 31.5261 45.75 31.1223 45.75H26.6875V50.5156C26.6875 52.0948 25.4073 53.375 23.8281 53.375H19.0625V58.1406C19.0625 59.7198 17.7823 61 16.2031 61H2.85938C1.28017 61 0 59.7198 0 58.1406V48.8406C0 48.0823 0.301307 47.3549 0.837439 46.8187L20.1146 27.5415C19.4328 25.4739 19.0625 23.2647 19.0625 20.9688C19.0625 9.38804 28.4504 0.000119142 40.0311 1.1381e-09C51.646 -0.000119139 61 9.35385 61 20.9689ZM40.0312 15.25C40.0312 18.4084 42.5916 20.9688 45.75 20.9688C48.9084 20.9688 51.4688 18.4084 51.4688 15.25C51.4688 12.0916 48.9084 9.53125 45.75 9.53125C42.5916 9.53125 40.0312 12.0916 40.0312 15.25Z" fill="white"/>
</g>
<defs>
<clipPath id="clip0">
<rect width="61" height="61" fill="white"/>
</clipPath>
</defs>
</svg>
