<svg width="28" height="16" viewBox="0 0 28 16" fill="none" xmlns="http://www.w3.org/2000/svg">
<path fill-rule="evenodd" clip-rule="evenodd" d="M28 8.41668C28 12.6318 24.5572 16 20.4458 16C17.9328 16 15.6613 14.5837 14.2182 12.5H10.8558L9.6355 11.3182L8.1165 12.507L6.5275 11.2528L4.886 12.514L0 8.49134L3.90367 4.33334H14.2182C15.554 2.36984 17.8395 0.833344 20.447 0.833344C24.5268 0.833344 28 4.17701 28 8.41668ZM15.5272 10.1667C16.6705 12.1162 18.1837 13.6667 20.447 13.6667C23.261 13.6667 25.6667 11.3497 25.6667 8.41668C25.6667 5.50234 23.282 3.16668 20.4412 3.16668C18.0437 3.16668 16.6005 4.83851 15.5272 6.66668H4.914L3.4055 8.27201L4.93617 9.53318L6.54617 8.29534L8.12233 9.53901L9.79883 8.22884L11.7997 10.1667H15.5272ZM22.1667 6.52084C23.1327 6.52084 23.9167 7.30484 23.9167 8.27084C23.9167 9.23684 23.1327 10.0208 22.1667 10.0208C21.2007 10.0208 20.4167 9.23684 20.4167 8.27084C20.4167 7.30484 21.2007 6.52084 22.1667 6.52084Z" fill="white"/>
</svg>
