<svg width="174" height="119" viewBox="0 0 174 119" fill="none" xmlns="http://www.w3.org/2000/svg">
<path d="M47.3034 83.7289L42.7983 95.7619L40.5457 97.5167L27.5311 99.0208L27.7813 96.2632C28.5322 84.9824 29.0327 77.9631 29.0327 75.2056C26.0294 79.7179 23.5265 82.7262 21.5243 83.9796C20.2729 84.7317 18.7712 85.233 17.0192 85.7344C15.2672 86.2358 13.7655 86.4865 12.0135 86.4865C8.25931 86.4865 5.5062 85.233 3.25366 82.9769C1.00112 80.7207 0 77.9631 0 75.2056C0 71.4453 1.25141 67.4343 3.75424 62.922C6.25706 58.4096 9.51072 54.6493 13.265 51.6411C17.0192 48.6329 20.2729 46.8781 23.5265 46.8781C29.0327 46.8781 33.2876 48.8835 36.2909 52.8945C39.2943 56.9055 40.796 62.6713 40.796 69.9412C40.796 71.4453 40.5457 73.2001 40.5457 75.707C40.5457 78.2138 40.2955 80.2193 40.0452 81.9741L46.3022 81.4728L47.3034 83.7289ZM28.7825 70.1919C28.0316 67.685 26.2796 65.6795 24.0271 64.6768C21.7746 63.674 18.5209 62.922 14.5164 62.922C12.2638 62.922 10.2616 63.1727 8.75988 63.9247C9.26045 66.4316 10.7621 68.4371 13.0147 69.9412C15.5175 71.4453 18.0203 72.1974 21.0237 72.1974C24.0271 72.448 26.5299 71.696 28.7825 70.1919ZM14.5164 33.0903L33.2875 28.0766L31.2853 38.6054L13.0147 42.6164L14.5164 33.0903Z" fill="white"/>
<path d="M73.834 85.2333L69.3289 97.2662L67.0763 99.021L57.065 100.024C57.3153 97.0155 57.3153 92.7538 57.3153 86.7374C57.3153 84.9826 57.3153 83.7291 57.3153 82.9771C56.0639 87.2388 54.8125 91.2497 53.0605 94.7593C49.3063 96.0128 45.0515 96.7648 40.5464 97.2662L46.5532 81.473C50.5577 81.2223 54.0616 80.4702 57.065 79.4675C56.5645 74.7044 55.8136 69.9414 54.8125 65.4291C53.5611 60.666 52.3097 56.655 51.0582 53.1454C52.8102 50.1372 54.5622 47.3797 56.8148 44.8728C59.0673 42.1153 61.0696 40.1098 63.0718 38.6057C63.8227 40.3605 64.3232 43.8701 65.0741 49.3852C65.8249 54.9002 66.0752 59.6633 66.0752 63.925C66.0752 67.9359 66.0752 71.9469 65.8249 75.4565C65.5746 79.2168 65.3244 81.9743 65.0741 83.7291L73.3334 82.9771L73.834 85.2333Z" fill="white"/>
<path d="M105.619 62.4206L101.114 74.4536L98.8613 76.2084L95.8579 76.4591H94.8567C95.3573 77.4618 95.8579 78.2139 95.8579 78.9659C95.8579 81.4728 94.8568 84.481 93.1048 87.7399C91.3528 90.9989 89.1003 93.5057 86.5974 95.2605C84.3449 96.0126 81.8421 96.5139 79.089 97.0153C76.3359 97.5167 72.5816 98.0181 67.3257 98.5194L73.3325 82.7262L76.3359 82.4755H76.5861V82.9769C76.5861 81.9742 77.0867 80.2194 77.8376 77.9632C78.5884 75.4563 79.5895 73.2001 80.8409 70.6933C82.0923 68.4371 83.0935 66.6823 84.0946 65.6796C85.8466 63.6741 91.6031 62.17 101.114 61.1672L105.118 60.6658L105.619 62.4206Z" fill="white"/>
<path d="M135.654 44.6221C135.654 47.8811 134.903 52.1427 133.652 56.6551C132.4 61.4181 130.898 64.9277 129.146 67.1839C126.644 69.1894 122.889 70.9442 117.633 72.699C112.378 74.4538 106.12 75.7072 98.8623 76.4593L104.869 60.666C113.379 59.6633 119.886 58.6606 124.641 57.4071C118.635 56.9057 111.376 56.1537 102.617 54.6496L108.874 41.1125C111.126 41.6139 112.628 41.8646 113.128 41.8646C112.878 31.3358 111.877 21.0576 110.125 11.5316C112.127 9.0247 114.38 6.76853 116.632 4.76304C118.885 2.50686 121.137 1.00274 123.39 0C123.64 2.00549 123.891 5.01372 123.891 9.0247C123.891 11.7822 123.64 15.7932 123.39 21.3083C123.14 26.8234 122.639 30.0823 122.389 31.5865L116.632 42.366C124.141 43.6194 130.648 44.3714 135.654 44.6221ZM100.114 87.9908L109.624 81.473L111.126 83.7292C113.128 86.9881 114.63 89.2443 115.882 90.9991L107.122 96.7648C104.869 95.01 102.617 92.0018 100.114 87.9908Z" fill="white"/>
<path d="M160.682 84.4815L156.177 96.5145L153.924 98.2693L143.913 99.272C143.913 92.5035 143.412 84.2309 142.912 74.4541C142.411 64.6773 141.66 56.154 140.909 48.3828C142.912 46.1266 144.914 43.8704 147.417 41.6142C149.92 39.3581 151.922 37.8539 153.924 36.8512C154.174 38.1046 154.425 40.3608 154.425 43.369C154.425 48.6334 154.174 55.9033 153.424 64.6774C152.673 73.7021 151.922 79.7185 151.421 83.2281L159.681 82.2254L160.682 84.4815Z" fill="white"/>
<path d="M153.922 110.051L163.433 103.533L164.934 105.79C166.937 109.049 168.438 111.305 169.69 113.06L160.93 118.825C158.677 117.07 156.174 114.062 153.922 110.051ZM173.944 71.6963C172.943 80.9717 170.691 88.9936 167.187 96.2635C163.933 97.2663 159.678 98.0183 153.922 98.5197L159.929 82.7265C163.433 82.2251 166.186 81.7237 168.188 81.2224C169.189 77.4621 169.94 74.2032 170.44 71.4456L173.944 71.6963Z" fill="white"/>
</svg>
