<svg width="177" height="70" viewBox="0 0 177 70" fill="none" xmlns="http://www.w3.org/2000/svg">
<path d="M98.2 44.3L96.4 49.1L95.5 49.8L90.3 50.4L90.4 49.3C90.7 44.8 90.9 42 90.9 40.9C89.7 42.7 88.7 43.9 87.9 44.4C87.4 44.7 86.8 44.9 86.1 45.1C85.4 45.3 84.8 45.4 84.1 45.4C82.6 45.4 81.5 44.9 80.6 44C79.7 43.1 79.3 42 79.3 40.9C79.3 39.4 79.8 37.8 80.8 36C81.8 34.2 83.1 32.7 84.6 31.5C86.1 30.3 87.4 29.6 88.7 29.6C90.9 29.6 92.6 30.4 93.8 32C95 33.6 95.6 35.9 95.6 38.8C95.6 39.4 95.5 40.1 95.5 41.1C95.5 42.1 95.4 42.9 95.3 43.6L97.8 43.4L98.2 44.3ZM90.8 38.9C90.5 37.9 89.8 37.1 88.9 36.7C88 36.3 86.7 36 85.1 36C84.2 36 83.4 36.1 82.8 36.4C83 37.4 83.6 38.2 84.5 38.8C85.5 39.4 86.5 39.7 87.7 39.7C88.9 39.8 89.9 39.5 90.8 38.9ZM85.1 24.1L92.6 22.1L91.8 26.3L84.5 27.9L85.1 24.1Z" fill="white"/>
<path d="M108.8 44.9L107 49.7L106.1 50.4L102.1 50.8C102.2 49.6 102.2 47.9 102.2 45.5C102.2 44.8 102.2 44.3 102.2 44C101.7 45.7 101.2 47.3 100.5 48.7C99 49.2 97.3 49.5 95.5 49.7L97.9 43.4C99.5 43.3 100.9 43 102.1 42.6C101.9 40.7 101.6 38.8 101.2 37C100.7 35.1 100.2 33.5 99.7 32.1C100.4 30.9 101.1 29.8 102 28.8C102.9 27.7 103.7 26.9 104.5 26.3C104.8 27 105 28.4 105.3 30.6C105.6 32.8 105.7 34.7 105.7 36.4C105.7 38 105.7 39.6 105.6 41C105.5 42.5 105.4 43.6 105.3 44.3L108.6 44L108.8 44.9Z" fill="white"/>
<path d="M121.5 35.8L119.7 40.6L118.8 41.3L117.6 41.4H117.2C117.4 41.8 117.6 42.1 117.6 42.4C117.6 43.4 117.2 44.6 116.5 45.9C115.8 47.2 114.9 48.2 113.9 48.9C113 49.2 112 49.4 110.9 49.6C109.8 49.8 108.3 50 106.2 50.2L108.6 43.9L109.8 43.8H109.9V44C109.9 43.6 110.1 42.9 110.4 42C110.7 41 111.1 40.1 111.6 39.1C112.1 38.2 112.5 37.5 112.9 37.1C113.6 36.3 115.9 35.7 119.7 35.3L121.3 35.1L121.5 35.8Z" fill="white"/>
<path d="M133.5 28.7C133.5 30 133.2 31.7 132.7 33.5C132.2 35.4 131.6 36.8 130.9 37.7C129.9 38.5 128.4 39.2 126.3 39.9C124.2 40.6 121.7 41.1 118.8 41.4L121.2 35.1C124.6 34.7 127.2 34.3 129.1 33.8C126.7 33.6 123.8 33.3 120.3 32.7L122.8 27.3C123.7 27.5 124.3 27.6 124.5 27.6C124.4 23.4 124 19.3 123.3 15.5C124.1 14.5 125 13.6 125.9 12.8C126.8 11.9 127.7 11.3 128.6 10.9C128.7 11.7 128.8 12.9 128.8 14.5C128.8 15.6 128.7 17.2 128.6 19.4C128.5 21.6 128.3 22.9 128.2 23.5L125.9 27.8C128.9 28.3 131.5 28.6 133.5 28.7ZM119.3 46L123.1 43.4L123.7 44.3C124.5 45.6 125.1 46.5 125.6 47.2L122.1 49.5C121.2 48.8 120.3 47.6 119.3 46Z" fill="white"/>
<path d="M143.5 44.6L141.7 49.4L140.8 50.1L136.8 50.5C136.8 47.8 136.6 44.5 136.4 40.6C136.2 36.7 135.9 33.3 135.6 30.2C136.4 29.3 137.2 28.4 138.2 27.5C139.2 26.6 140 26 140.8 25.6C140.9 26.1 141 27 141 28.2C141 30.3 140.9 33.2 140.6 36.7C140.3 40.3 140 42.7 139.8 44.1L143.1 43.7L143.5 44.6Z" fill="white"/>
<path d="M140.8 54.8L144.6 52.2L145.2 53.1C146 54.4 146.6 55.3 147.1 56L143.6 58.3C142.7 57.6 141.7 56.4 140.8 54.8ZM148.8 39.5C148.4 43.2 147.5 46.4 146.1 49.3C144.8 49.7 143.1 50 140.8 50.2L143.2 43.9C144.6 43.7 145.7 43.5 146.5 43.3C146.9 41.8 147.2 40.5 147.4 39.4L148.8 39.5Z" fill="white"/>
<path d="M37.2 7.60001C22.3 7.60001 10.1 19.7 10.1 34.7C10.1 49.6 22.2 61.8 37.2 61.8C41.5 61.8 45.6 60.8 49.2 59C48.8 58.7 48.3 58.4 47.8 58.1C47.8 58.1 46.1 57.1 45.6 55.6C45.4 55.9 45.2 56.2 44.9 56.3C43.4 56.8 43 56 43 56C43 56 42.1 57 42.1 56C42.1 55 42.6 54.2 42.6 54.2C42.6 54.2 41.5 56 41.1 54.9C40.7 53.8 40.2 52.3 40.2 52.3C40.2 52.3 39.8 54 39.3 53.2C39.2 53 39.1 52.8 39 52.6C36.8 54.7 34.1 56.9 32.3 57.9C29.1 59.8 27.1 55.2 27.1 53.2C27.1 50.1 30.3 49.5 31.8 45.8C32.5 43.9 32.9 41.2 31.3 37.2C31.1 36.8 31 36.3 30.8 35.9C30.2 35.8 29.5 35.6 28.8 35.5C25.9 35.2 24.9 35.8 24 35.2C22.5 34.1 21.8 29.4 24.5 27.9C28.6 25.6 30.1 25.6 30.1 25.6C30.1 25.6 30.4 23.7 32.7 24.7C32.7 24.7 34.3 22.3 36.9 23.6C36.9 23.6 40.7 20 39.9 24.1C39.9 24.1 44 22.4 44.8 28.2C44.8 28.2 47.9 30.6 47.2 33.4C46.5 36.2 45.4 41.9 45.3 42.8C45.3 43.4 46.8 46 48.3 45.8C48.6 45.8 49.3 45.5 50.4 43.2C52.1 39.7 51.5 38.6 52.6 37C54.1 34.9 57.3 33.4 59.6 34.4C61.6 35.3 62.3 37.8 62.5 38.5C62.8 39.5 62.5 39.5 62.5 43.2C62.5 43.2 62.5 43.7 62.5 44.4C63.7 41.4 64.3 38.1 64.3 34.7C64.3 19.7 52.1 7.60001 37.2 7.60001Z" fill="white"/>
<path d="M34.4 40.5C36.6 37.1 36.6 37.1 36.6 37.1C36.6 37.1 34.4 37.6 33.3 36.2C32.2 34.8 32.2 34.8 32.2 34.8C32.2 35.2 32.2 35.6 32.1 36.1L32.4 36.8C33.2 37.8 33.5 38.6 33.7 39.2C33.9 39.8 34 40.6 33.9 41.6C34 41.3 34.1 40.9 34.4 40.5Z" fill="white"/>
<path d="M37.4 50.6C37.4 50.6 36.2 51 36.3 49.1C36.4 47.1 36.8 44.1 36.8 44.1C36.8 44.1 35.5 46.7 35.6 45.2C35.7 43.7 34.7 44.2 34.7 44.2C34.7 44.2 33.7 44.1 33.6 43.1C33.1 45 32 47.7 29.7 51.8C26.9 56.8 32.4 55.6 32.4 55.6C32.4 55.6 32.4 55.6 38.1 50.3C38.1 50.1 38 49.9 38 49.7C37.5 49.1 37.4 50.6 37.4 50.6Z" fill="white"/>
</svg>
