<svg width="207" height="207" viewBox="0 0 207 207" fill="none" xmlns="http://www.w3.org/2000/svg">
<path d="M92.5623 125.523C100.942 112.551 100.942 112.551 100.942 112.551C100.942 112.551 92.5623 114.459 88.3722 109.117C84.1822 103.776 84.1822 103.776 84.1822 103.776C84.1822 105.302 84.1822 106.828 83.8013 108.736L84.944 111.406C87.9913 115.222 89.1341 118.274 89.8959 120.563C90.6577 122.852 91.0387 125.905 90.6577 129.72C91.0387 128.575 91.4196 127.049 92.5623 125.523Z" fill="white"/>
<path d="M103.228 0C46.4715 0 0 46.1649 0 103.394C0 160.242 46.0906 206.788 103.228 206.788C119.607 206.788 135.225 202.973 148.937 196.106C147.414 194.961 145.509 193.816 143.605 192.672C143.605 192.672 137.129 188.857 135.225 183.134C134.463 184.278 133.701 185.423 132.558 185.804C126.844 187.712 125.321 184.66 125.321 184.66C125.321 184.66 121.893 188.475 121.893 184.66C121.893 180.845 123.797 177.792 123.797 177.792C123.797 177.792 119.607 184.66 118.083 180.463C116.56 176.266 114.655 170.543 114.655 170.543C114.655 170.543 113.132 177.029 111.227 173.977C110.846 173.214 110.465 172.451 110.084 171.688C101.704 179.7 91.4194 188.094 84.5629 191.909C72.3737 199.158 64.7554 181.608 64.7554 173.977C64.7554 162.15 76.9447 159.86 82.6584 145.744C85.3248 138.495 86.8484 128.194 80.7538 112.932C79.992 111.406 79.6111 109.499 78.8492 107.973C76.5637 107.591 73.8973 106.828 71.2309 106.446C60.1844 105.302 56.3753 107.591 52.9471 105.302C47.2334 101.105 44.567 83.1732 54.8516 77.4503C70.4691 68.6751 76.1828 68.6751 76.1828 68.6751C76.1828 68.6751 77.3256 61.4261 86.0866 65.2414C86.0866 65.2414 92.1812 56.0847 102.085 61.0446C102.085 61.0446 116.56 47.3095 113.512 62.9522C113.512 62.9522 129.13 56.4662 132.177 78.5949C132.177 78.5949 143.986 87.7516 141.319 98.4344C138.653 109.117 134.463 130.864 134.082 134.298C134.082 136.587 139.795 146.507 145.509 145.744C146.652 145.744 149.318 144.599 153.508 135.824C159.984 122.471 157.698 118.274 161.889 112.169C167.602 104.157 179.791 98.4344 188.553 102.25C196.171 105.683 198.837 115.222 199.599 117.892C200.742 121.708 199.599 121.708 199.599 135.824C199.599 135.824 199.599 137.732 199.599 140.402C204.17 128.957 206.456 116.366 206.456 103.394C206.456 46.1649 159.984 0 103.228 0Z" fill="white"/>
<path d="M103.991 164.057C103.991 164.057 99.4197 165.583 99.8006 158.334C100.182 150.704 101.705 139.258 101.705 139.258C101.705 139.258 96.7533 149.178 97.1342 143.455C97.5151 137.732 93.706 139.639 93.706 139.639C93.706 139.639 89.8969 139.258 89.5159 135.443C87.6114 142.692 83.4213 152.993 74.6603 168.636C63.9947 187.712 84.945 183.134 84.945 183.134C84.945 183.134 84.945 183.134 106.657 162.913C106.657 162.15 106.276 161.386 106.276 160.623C104.372 158.334 103.991 164.057 103.991 164.057Z" fill="white"/>
</svg>
