<svg width="40" height="45" viewBox="0 0 40 45" fill="none" xmlns="http://www.w3.org/2000/svg">
<path d="M27.715 26.7187C25.1785 26.7187 23.9589 28.125 19.7964 28.125C15.6339 28.125 14.4231 26.7187 11.8778 26.7187C5.32028 26.7187 0 32.0098 0 38.5312V40.7812C0 43.1103 1.9001 45 4.24208 45H35.3507C37.6927 45 39.5928 43.1103 39.5928 40.7812V38.5312C39.5928 32.0098 34.2725 26.7187 27.715 26.7187ZM35.3507 40.7812H4.24208V38.5312C4.24208 34.3477 7.6711 30.9375 11.8778 30.9375C13.1681 30.9375 15.2627 32.3437 19.7964 32.3437C24.3655 32.3437 26.4158 30.9375 27.715 30.9375C31.9217 30.9375 35.3507 34.3477 35.3507 38.5312V40.7812ZM19.7964 25.3125C26.8223 25.3125 32.5226 19.6436 32.5226 12.6563C32.5226 5.66895 26.8223 0 19.7964 0C12.7704 0 7.07014 5.66895 7.07014 12.6563C7.07014 19.6436 12.7704 25.3125 19.7964 25.3125ZM19.7964 4.21875C24.4715 4.21875 28.2806 8.00684 28.2806 12.6563C28.2806 17.3057 24.4715 21.0938 19.7964 21.0938C15.1213 21.0938 11.3122 17.3057 11.3122 12.6563C11.3122 8.00684 15.1213 4.21875 19.7964 4.21875Z" fill="white"/>
</svg>
